<?xml version="1.0" encoding="UTF-8"?>
<svg version="1.1" xmlns="http://www.w3.org/2000/svg" width="778" height="568">
<path d="M0 0 C1.17257858 0.00187317 2.34515717 0.00374634 3.55326843 0.00567627 C6.01478957 0.01236081 8.47630073 0.02620282 10.93774414 0.046875 C14.70534134 0.07817587 18.47251968 0.08786716 22.24023438 0.09375 C24.63932802 0.10291559 27.03841742 0.11328994 29.4375 0.125 C30.56150711 0.12924988 31.68551422 0.13349976 32.84358215 0.13787842 C33.89204819 0.14748596 34.94051422 0.15709351 36.02075195 0.16699219 C37.39781059 0.17723419 37.39781059 0.17723419 38.8026886 0.18768311 C41.41624605 0.32972981 43.83684798 0.75100197 46.38671875 1.328125 C46.38671875 1.988125 46.38671875 2.648125 46.38671875 3.328125 C50.34671875 3.823125 50.34671875 3.823125 54.38671875 4.328125 C54.38671875 4.988125 54.38671875 5.648125 54.38671875 6.328125 C55.71703125 6.4209375 55.71703125 6.4209375 57.07421875 6.515625 C61.14828356 7.51492392 62.62260534 9.25688788 65.38671875 12.328125 C66.04671875 12.658125 66.70671875 12.988125 67.38671875 13.328125 C67.38671875 13.988125 67.38671875 14.648125 67.38671875 15.328125 C68.37671875 15.658125 69.36671875 15.988125 70.38671875 16.328125 C70.38671875 16.988125 70.38671875 17.648125 70.38671875 18.328125 C71.37671875 18.658125 72.36671875 18.988125 73.38671875 19.328125 C73.38671875 19.988125 73.38671875 20.648125 73.38671875 21.328125 C74.25296875 21.76125 74.25296875 21.76125 75.13671875 22.203125 C77.22005208 23.24479167 79.30338542 24.28645833 81.38671875 25.328125 C81.38671875 25.988125 81.38671875 26.648125 81.38671875 27.328125 C82.70930347 28.01586905 84.04658378 28.67523873 85.38671875 29.328125 C86.96453125 30.1015625 86.96453125 30.1015625 88.57421875 30.890625 C97.25243238 34.51277015 107.46485745 33.48057618 116.70545959 33.48634338 C118.26002851 33.49091495 119.81459621 33.49591584 121.3691625 33.50130695 C125.62441588 33.51482974 129.87966131 33.52228935 134.13493049 33.52873361 C138.72991669 33.53676342 143.32488649 33.55045226 147.91986084 33.56344604 C155.87548876 33.58517227 163.83111836 33.6033308 171.78676033 33.61905098 C183.28921627 33.64178478 194.79165402 33.6699227 206.2940945 33.69937026 C224.95704128 33.74700319 243.61999552 33.79027899 262.28295898 33.83081055 C280.409918 33.87018737 298.53687041 33.91161882 316.66381836 33.95581055 C317.78157719 33.95853482 318.89933602 33.96125909 320.05096633 33.96406592 C325.65855742 33.97774576 331.26614842 33.99146596 336.87373936 34.00520623 C383.37805202 34.11910345 429.882379 34.22592771 476.38671875 34.328125 C476.38671875 34.988125 476.38671875 35.648125 476.38671875 36.328125 C477.10214844 36.23789063 477.81757812 36.14765625 478.5546875 36.0546875 C482.43710787 36.42954188 483.88650515 38.06125771 486.69921875 40.703125 C487.58222656 41.51523438 488.46523438 42.32734375 489.375 43.1640625 C491.38671875 45.328125 491.38671875 45.328125 491.38671875 47.328125 C492.04671875 47.328125 492.70671875 47.328125 493.38671875 47.328125 C493.71671875 49.308125 494.04671875 51.288125 494.38671875 53.328125 C495.04671875 53.328125 495.70671875 53.328125 496.38671875 53.328125 C496.38671875 106.458125 496.38671875 159.588125 496.38671875 214.328125 C495.72671875 214.328125 495.06671875 214.328125 494.38671875 214.328125 C494.05671875 216.308125 493.72671875 218.288125 493.38671875 220.328125 C492.72671875 220.328125 492.06671875 220.328125 491.38671875 220.328125 C491.13921875 220.946875 490.89171875 221.565625 490.63671875 222.203125 C489.18043236 224.67881187 488.00859369 225.27937502 485.38671875 226.328125 C485.38671875 226.988125 485.38671875 227.648125 485.38671875 228.328125 C484.06671875 228.658125 482.74671875 228.988125 481.38671875 229.328125 C481.38671875 229.988125 481.38671875 230.648125 481.38671875 231.328125 C477.92033973 232.10997219 474.70456499 232.46074609 471.15385437 232.48634338 C470.12045425 232.4961322 469.08705414 232.50592102 468.02233887 232.51600647 C466.89952515 232.52176193 465.77671143 232.5275174 464.61987305 232.53344727 C463.42920731 232.54334686 462.23854156 232.55324646 461.01179504 232.56344604 C457.75600915 232.58958005 454.50022818 232.6114642 451.24439979 232.63144803 C447.83842862 232.65336192 444.4325013 232.6807241 441.02656555 232.70750427 C434.58105004 232.75735826 428.1355101 232.80232405 421.68994695 232.84552664 C414.35015939 232.89496147 407.01041583 232.94985637 399.67067087 233.00520623 C384.5760612 233.11891426 369.48141005 233.22577751 354.38671875 233.328125 C354.36145451 234.77611466 354.34337778 236.22423101 354.32836914 237.67236328 C354.31753799 238.47876251 354.30670685 239.28516174 354.29554749 240.11599731 C354.40847103 242.85590997 355.31775645 244.81430157 356.38671875 247.328125 C356.89165192 250.35479262 357.16729966 253.39859294 357.44921875 256.453125 C357.60379289 258.06018505 357.76122856 259.66697309 357.921875 261.2734375 C357.98769775 261.98000488 358.05352051 262.68657227 358.12133789 263.41455078 C358.3572989 265.54471648 358.3572989 265.54471648 359.38671875 268.328125 C359.49578574 271.03866892 359.55076325 273.72268126 359.5546875 276.43359375 C359.5580159 277.23162918 359.5613443 278.02966461 359.56477356 278.85188293 C359.56983608 280.54228134 359.57218209 282.23268973 359.57202148 283.9230957 C359.57419586 286.48861581 359.59232484 289.05369728 359.61132812 291.61914062 C359.61426475 293.26562354 359.61624774 294.91210848 359.6171875 296.55859375 C359.62437302 297.31722214 359.63155853 298.07585052 359.63896179 298.85746765 C359.61730382 303.99969314 358.75488319 308.37096437 357.38671875 313.328125 C357.12405832 315.48887874 356.9097836 317.65650716 356.76171875 319.828125 C356.68695312 320.8696875 356.6121875 321.91125 356.53515625 322.984375 C356.48617187 323.7578125 356.4371875 324.53125 356.38671875 325.328125 C355.72671875 325.328125 355.06671875 325.328125 354.38671875 325.328125 C354.05671875 329.948125 353.72671875 334.568125 353.38671875 339.328125 C352.72671875 339.328125 352.06671875 339.328125 351.38671875 339.328125 C351.28359375 340.50375 351.18046875 341.679375 351.07421875 342.890625 C350.55756917 347.15298403 349.23588265 350.46900034 347.38671875 354.328125 C346.72671875 354.328125 346.06671875 354.328125 345.38671875 354.328125 C345.05671875 356.308125 344.72671875 358.288125 344.38671875 360.328125 C343.72671875 360.328125 343.06671875 360.328125 342.38671875 360.328125 C342.05671875 361.978125 341.72671875 363.628125 341.38671875 365.328125 C340.72671875 365.328125 340.06671875 365.328125 339.38671875 365.328125 C339.09796875 366.070625 338.80921875 366.813125 338.51171875 367.578125 C337.56369231 369.89552297 336.53825964 372.10729615 335.38671875 374.328125 C334.72671875 374.328125 334.06671875 374.328125 333.38671875 374.328125 C333.05671875 375.648125 332.72671875 376.968125 332.38671875 378.328125 C331.72671875 378.328125 331.06671875 378.328125 330.38671875 378.328125 C330.22171875 379.00875 330.05671875 379.689375 329.88671875 380.390625 C327.65608421 384.75895098 324.12611176 387.24049239 320.38671875 390.328125 C319.00897433 391.55421472 317.63389417 392.78330592 316.26171875 394.015625 C307.8951647 401.328125 307.8951647 401.328125 304.38671875 401.328125 C304.38671875 401.988125 304.38671875 402.648125 304.38671875 403.328125 C303.74734375 403.451875 303.10796875 403.575625 302.44921875 403.703125 C301.76859375 403.909375 301.08796875 404.115625 300.38671875 404.328125 C300.05671875 404.988125 299.72671875 405.648125 299.38671875 406.328125 C297.40782914 407.05506404 295.40717317 407.72628751 293.38671875 408.328125 C293.38671875 408.658125 293.38671875 408.988125 293.38671875 409.328125 C290.41671875 409.658125 287.44671875 409.988125 284.38671875 410.328125 C284.38671875 410.988125 284.38671875 411.648125 284.38671875 412.328125 C281.74671875 412.658125 279.10671875 412.988125 276.38671875 413.328125 C276.38671875 413.988125 276.38671875 414.648125 276.38671875 415.328125 C275.38769531 415.46089844 274.38867188 415.59367187 273.359375 415.73046875 C272.06902344 415.90707031 270.77867187 416.08367187 269.44921875 416.265625 C268.16144531 416.43964844 266.87367188 416.61367188 265.546875 416.79296875 C262.53205562 416.98974923 262.53205562 416.98974923 261.38671875 418.328125 C251.96899436 419.76130573 242.29677528 419.48245686 232.79541016 419.45849609 C230.25937973 419.45312004 227.72352519 419.45848044 225.1875 419.46484375 C217.18580367 419.4677836 209.33719399 419.35241936 201.38671875 418.328125 C201.38671875 417.668125 201.38671875 417.008125 201.38671875 416.328125 C197.42671875 415.998125 193.46671875 415.668125 189.38671875 415.328125 C189.38671875 414.668125 189.38671875 414.008125 189.38671875 413.328125 C186.74671875 412.998125 184.10671875 412.668125 181.38671875 412.328125 C181.38671875 411.668125 181.38671875 411.008125 181.38671875 410.328125 C178.74671875 409.998125 176.10671875 409.668125 173.38671875 409.328125 C173.38671875 408.668125 173.38671875 408.008125 173.38671875 407.328125 C171.40671875 406.998125 169.42671875 406.668125 167.38671875 406.328125 C167.38671875 405.668125 167.38671875 405.008125 167.38671875 404.328125 C166.814375 404.22371094 166.24203125 404.11929687 165.65234375 404.01171875 C163.01686107 403.21653001 161.32640567 402.04911009 159.13671875 400.390625 C158.07710938 399.60365234 158.07710938 399.60365234 156.99609375 398.80078125 C156.465 398.31480469 155.93390625 397.82882812 155.38671875 397.328125 C155.38671875 396.668125 155.38671875 396.008125 155.38671875 395.328125 C154.55140625 394.956875 154.55140625 394.956875 153.69921875 394.578125 C148.88601872 391.97639525 145.72914142 388.59259531 142.38671875 384.328125 C141.72671875 383.998125 141.06671875 383.668125 140.38671875 383.328125 C140.38671875 382.668125 140.38671875 382.008125 140.38671875 381.328125 C139.72671875 381.328125 139.06671875 381.328125 138.38671875 381.328125 C138.05671875 380.008125 137.72671875 378.688125 137.38671875 377.328125 C136.72671875 377.328125 136.06671875 377.328125 135.38671875 377.328125 C134.71263567 376.06120993 134.04771378 374.78941751 133.38671875 373.515625 C133.01546875 372.80792969 132.64421875 372.10023438 132.26171875 371.37109375 C131.38671875 369.328125 131.38671875 369.328125 131.38671875 366.328125 C130.72671875 366.328125 130.06671875 366.328125 129.38671875 366.328125 C129.05671875 364.348125 128.72671875 362.368125 128.38671875 360.328125 C127.72671875 360.328125 127.06671875 360.328125 126.38671875 360.328125 C126.05671875 358.348125 125.72671875 356.368125 125.38671875 354.328125 C124.72671875 354.328125 124.06671875 354.328125 123.38671875 354.328125 C121.34981808 348.70627914 119.85289423 343.1884909 118.81640625 337.296875 C118.57394015 335.33532486 118.57394015 335.33532486 117.38671875 334.328125 C115.6346088 318.9268622 113.1717682 296.76442747 119.38671875 282.328125 C119.55171875 281.131875 119.71671875 279.935625 119.88671875 278.703125 C120.38671875 275.328125 120.38671875 275.328125 122.38671875 272.328125 C122.77685591 270.3384255 123.11874524 268.33792631 123.38671875 266.328125 C124.04671875 266.328125 124.70671875 266.328125 125.38671875 266.328125 C125.67546875 265.44125 125.96421875 264.554375 126.26171875 263.640625 C127.21820623 260.82430076 128.25470821 258.07729344 129.38671875 255.328125 C130.04671875 255.328125 130.70671875 255.328125 131.38671875 255.328125 C131.51046875 254.19375 131.63421875 253.059375 131.76171875 251.890625 C132.07109375 250.1271875 132.07109375 250.1271875 132.38671875 248.328125 C133.04671875 247.998125 133.70671875 247.668125 134.38671875 247.328125 C134.71671875 246.338125 135.04671875 245.348125 135.38671875 244.328125 C136.82421875 242.640625 136.82421875 242.640625 138.38671875 241.328125 C139.04671875 241.328125 139.70671875 241.328125 140.38671875 241.328125 C140.71671875 240.338125 141.04671875 239.348125 141.38671875 238.328125 C143.33572902 236.66615601 145.26024248 235.14365998 147.32421875 233.640625 C147.87529297 233.22490234 148.42636719 232.80917969 148.99414062 232.38085938 C153.11959283 229.328125 153.11959283 229.328125 155.38671875 229.328125 C155.38671875 228.668125 155.38671875 228.008125 155.38671875 227.328125 C159.06124313 224.4887198 160.65558456 223.328125 165.38671875 223.328125 C165.38671875 222.668125 165.38671875 222.008125 165.38671875 221.328125 C167.69671875 220.998125 170.00671875 220.668125 172.38671875 220.328125 C172.38671875 219.668125 172.38671875 219.008125 172.38671875 218.328125 C174.69671875 217.998125 177.00671875 217.668125 179.38671875 217.328125 C179.38671875 216.668125 179.38671875 216.008125 179.38671875 215.328125 C180.09699219 215.19535156 180.80726563 215.06257812 181.5390625 214.92578125 C182.45816406 214.74917969 183.37726563 214.57257813 184.32421875 214.390625 C185.24074219 214.21660156 186.15726562 214.04257813 187.1015625 213.86328125 C189.33961719 213.55097512 189.33961719 213.55097512 190.38671875 212.328125 C196.09225534 211.41116376 201.61585081 211.20789858 207.38671875 211.328125 C207.38671875 210.668125 207.38671875 210.008125 207.38671875 209.328125 C215.35925227 208.22978158 223.24431043 208.18189913 231.28125 208.1953125 C232.71937578 208.19463706 234.15750144 208.19366504 235.59562683 208.19241333 C238.59867447 208.19094624 241.60169219 208.19305797 244.60473633 208.19775391 C248.42033443 208.20343505 252.23586192 208.2001761 256.05145741 208.19418144 C259.01918552 208.19053572 261.98689743 208.19173293 264.95462608 208.19430923 C266.35978898 208.19496827 267.76495344 208.19418665 269.17011452 208.19182968 C277.62998289 208.1807545 285.96883003 208.4647802 294.38671875 209.328125 C294.38671875 209.988125 294.38671875 210.648125 294.38671875 211.328125 C295.11375 211.31652344 295.84078125 211.30492187 296.58984375 211.29296875 C303.91303834 211.22724777 311.10038561 211.6046593 318.38671875 212.328125 C318.38671875 212.988125 318.38671875 213.648125 318.38671875 214.328125 C321.35671875 213.998125 324.32671875 213.668125 327.38671875 213.328125 C327.38671875 211.678125 327.38671875 210.028125 327.38671875 208.328125 C326.72671875 208.328125 326.06671875 208.328125 325.38671875 208.328125 C325.13148438 207.4928125 325.13148438 207.4928125 324.87109375 206.640625 C321.81343736 197.01226019 317.28119183 189.50653545 311.38671875 181.328125 C307.38671875 175.66048652 307.38671875 175.66048652 307.38671875 173.328125 C306.39671875 172.998125 305.40671875 172.668125 304.38671875 172.328125 C303.72005208 170.66145833 303.05338542 168.99479167 302.38671875 167.328125 C301.39671875 166.998125 300.40671875 166.668125 299.38671875 166.328125 C299.38671875 165.668125 299.38671875 165.008125 299.38671875 164.328125 C298.39671875 163.998125 297.40671875 163.668125 296.38671875 163.328125 C296.38671875 162.668125 296.38671875 162.008125 296.38671875 161.328125 C295.39671875 161.328125 294.40671875 161.328125 293.38671875 161.328125 C291.69909024 159.6826872 290.03268385 158.01523923 288.38671875 156.328125 C287.39671875 155.998125 286.40671875 155.668125 285.38671875 155.328125 C285.38671875 154.668125 285.38671875 154.008125 285.38671875 153.328125 C284.54109375 153.06 283.69546875 152.791875 282.82421875 152.515625 C279.38671875 151.328125 279.38671875 151.328125 275.88671875 149.765625 C270.58554895 147.58835883 265.67238642 147.20311269 259.97932625 147.20507717 C258.70290736 147.20308612 257.42648848 147.20109507 256.11139023 147.19904369 C254.70236259 147.20189639 253.29333514 147.20484198 251.88430786 147.20787048 C250.38182681 147.20743429 248.87934584 147.2065585 247.37686527 147.20528132 C243.25164033 147.20304577 239.12644137 147.20704481 235.00121975 147.21205938 C230.55138589 147.21637716 226.1015535 147.21491651 221.65171814 147.2141571 C213.9432147 147.21363271 206.23471972 147.21677067 198.52621841 147.22239494 C187.3810143 147.2305214 176.23581427 147.23312634 165.09060751 147.23438293 C147.00831935 147.23657165 128.92603571 147.24322685 110.84375 147.25268555 C93.27832054 147.26186433 75.71289231 147.26894289 58.14746094 147.27319336 C57.06475788 147.27345608 55.98205483 147.27371881 54.86654259 147.27398949 C49.43494854 147.27529453 44.00335448 147.27655824 38.57176042 147.27780139 C-6.48992326 147.28816838 -51.55160202 147.30578181 -96.61328125 147.328125 C-98.60323709 150.65442186 -98.86631088 153.17126219 -98.87499428 157.02090073 C-98.88245977 158.18883565 -98.88992526 159.35677057 -98.89761698 160.56009746 C-98.89568225 161.84413187 -98.89374751 163.12816629 -98.89175415 164.45111084 C-98.89675607 165.82812493 -98.90263156 167.20513608 -98.90930688 168.58214307 C-98.92513356 172.36984475 -98.92853903 176.15747231 -98.92995548 179.94520307 C-98.93364488 184.02835539 -98.94879805 188.11146683 -98.96257019 192.19459534 C-98.98486132 199.27015506 -98.99986345 206.34570028 -99.00993729 213.42128754 C-99.02451292 223.65143719 -99.05004659 233.88153631 -99.07826857 244.11165634 C-99.12375688 260.70870153 -99.16036325 277.305754 -99.19140625 293.90283203 C-99.22158345 310.02686845 -99.2559299 326.15088709 -99.29589844 342.27490234 C-99.29835999 343.26852098 -99.30082153 344.26213961 -99.30335768 345.2858679 C-99.31573212 350.27048126 -99.32818868 355.25509441 -99.34068608 360.23970747 C-99.4442844 401.60248858 -99.53347758 442.96529158 -99.61328125 484.328125 C-98.95328125 484.328125 -98.29328125 484.328125 -97.61328125 484.328125 C-95.98828125 485.703125 -95.98828125 485.703125 -94.61328125 487.328125 C-94.61328125 487.988125 -94.61328125 488.648125 -94.61328125 489.328125 C14.61671875 489.328125 123.84671875 489.328125 236.38671875 489.328125 C236.38671875 494.608125 236.38671875 499.888125 236.38671875 505.328125 C235.38671875 506.328125 235.38671875 506.328125 233.14013857 506.4523235 C231.632459 506.45175392 231.632459 506.45175392 230.09432125 506.45117283 C228.36182877 506.4541594 228.36182877 506.4541594 226.59433645 506.45720631 C225.30934541 506.45429347 224.02435436 506.45138063 222.70042419 506.44837952 C221.33425202 506.4488151 219.96807992 506.44968976 218.60190827 506.45096868 C214.83023612 506.45321621 211.05859209 506.44918887 207.28692353 506.44419062 C203.22623513 506.43988997 199.16554843 506.44133227 195.1048584 506.4420929 C188.06361449 506.44261838 181.02237982 506.43946906 173.98113823 506.43385506 C163.80056495 506.42574331 153.61999615 506.42312517 143.43941999 506.42186707 C126.92388488 506.41967603 110.4083547 506.41301456 93.89282227 506.40356445 C77.84529648 506.39439166 61.79777202 506.38731018 45.75024414 506.38305664 C44.76181133 506.38279392 43.77337852 506.38253119 42.75499319 506.38226051 C37.79653625 506.38095551 32.8380793 506.3796918 27.87962234 506.37844861 C-13.28468228 506.36807439 -54.44898149 506.35045469 -95.61328125 506.328125 C-95.61328125 505.668125 -95.61328125 505.008125 -95.61328125 504.328125 C-96.19335938 504.31394531 -96.7734375 504.29976562 -97.37109375 504.28515625 C-103.50099366 503.91088843 -106.35724446 502.78683021 -110.61328125 498.328125 C-116.71541546 489.96594109 -117.04808749 481.69731331 -117.0009613 471.70202637 C-117.00513828 470.31901095 -117.01061779 468.93599897 -117.01728112 467.5529933 C-117.03170656 463.766917 -117.02750017 459.98105894 -117.0201143 456.19497085 C-117.01537779 452.10628335 -117.02789667 448.01764273 -117.03813171 443.92897034 C-117.05531489 435.92492075 -117.05616082 427.92094969 -117.05091881 419.91688645 C-117.04687542 413.41113052 -117.04832268 406.90539777 -117.05366707 400.39964294 C-117.05441549 399.47329063 -117.05516391 398.54693832 -117.05593501 397.59251472 C-117.05746651 395.71057784 -117.05900485 393.82864096 -117.06054998 391.94670409 C-117.07427298 374.30470831 -117.06883847 356.66275691 -117.05736477 339.02076215 C-117.04742992 322.88294787 -117.06037777 306.74524821 -117.08429896 290.60745162 C-117.10868342 274.03212589 -117.1182996 257.45685356 -117.11164623 240.88151026 C-117.10815291 231.57766543 -117.11039372 222.27390878 -117.12789726 212.97007751 C-117.14261095 205.05105072 -117.14326546 197.13217421 -117.12582635 189.21315038 C-117.11730759 185.17362802 -117.1151881 181.13437423 -117.13047791 177.0948658 C-117.14430882 173.39497816 -117.1395829 169.69558959 -117.12023867 165.99573094 C-117.11469354 164.02763709 -117.12876342 162.05951794 -117.14359277 160.09147215 C-117.08426487 152.97080862 -116.36066291 148.41072479 -112.61328125 142.328125 C-112.28134921 141.63412739 -111.94941717 140.94012979 -111.60742658 140.22510195 C-110.34948627 137.82476499 -108.89305743 136.75298511 -106.61328125 135.328125 C-105.95328125 135.328125 -105.29328125 135.328125 -104.61328125 135.328125 C-104.61328125 134.668125 -104.61328125 134.008125 -104.61328125 133.328125 C-102.63328125 132.998125 -100.65328125 132.668125 -98.61328125 132.328125 C-98.61328125 131.668125 -98.61328125 131.008125 -98.61328125 130.328125 C24.14671875 130.328125 146.90671875 130.328125 273.38671875 130.328125 C273.38671875 130.988125 273.38671875 131.648125 273.38671875 132.328125 C274.07378906 132.37710938 274.76085937 132.42609375 275.46875 132.4765625 C276.36980469 132.55132812 277.27085937 132.62609375 278.19921875 132.703125 C279.09253906 132.77273437 279.98585938 132.84234375 280.90625 132.9140625 C283.38671875 133.328125 283.38671875 133.328125 286.38671875 135.328125 C287.37671875 135.658125 288.36671875 135.988125 289.38671875 136.328125 C289.38671875 136.988125 289.38671875 137.648125 289.38671875 138.328125 C291.03671875 138.658125 292.68671875 138.988125 294.38671875 139.328125 C294.38671875 139.988125 294.38671875 140.648125 294.38671875 141.328125 C296.36671875 141.658125 298.34671875 141.988125 300.38671875 142.328125 C300.38671875 142.988125 300.38671875 143.648125 300.38671875 144.328125 C301.70671875 144.988125 303.02671875 145.648125 304.38671875 146.328125 C304.38671875 146.988125 304.38671875 147.648125 304.38671875 148.328125 C305.04671875 148.328125 305.70671875 148.328125 306.38671875 148.328125 C306.38671875 148.988125 306.38671875 149.648125 306.38671875 150.328125 C307.31484375 150.699375 307.31484375 150.699375 308.26171875 151.078125 C310.77382171 152.55583262 311.14779219 153.76767677 312.38671875 156.328125 C313.37671875 156.658125 314.36671875 156.988125 315.38671875 157.328125 C317.2890625 159.4375 317.2890625 159.4375 319.32421875 162.078125 C319.99324219 162.93921875 320.66226563 163.8003125 321.3515625 164.6875 C322.35896484 165.99460938 322.35896484 165.99460938 323.38671875 167.328125 C324.13050781 168.22015625 324.87429688 169.1121875 325.640625 170.03125 C327.38671875 172.328125 327.38671875 172.328125 327.38671875 174.328125 C328.04671875 174.328125 328.70671875 174.328125 329.38671875 174.328125 C329.71671875 176.308125 330.04671875 178.288125 330.38671875 180.328125 C331.04671875 180.328125 331.70671875 180.328125 332.38671875 180.328125 C332.71671875 182.308125 333.04671875 184.288125 333.38671875 186.328125 C334.04671875 186.328125 334.70671875 186.328125 335.38671875 186.328125 C335.71671875 187.978125 336.04671875 189.628125 336.38671875 191.328125 C337.04671875 191.328125 337.70671875 191.328125 338.38671875 191.328125 C338.71671875 193.308125 339.04671875 195.288125 339.38671875 197.328125 C340.04671875 197.328125 340.70671875 197.328125 341.38671875 197.328125 C341.71671875 199.638125 342.04671875 201.948125 342.38671875 204.328125 C343.04671875 204.328125 343.70671875 204.328125 344.38671875 204.328125 C344.71671875 206.968125 345.04671875 209.608125 345.38671875 212.328125 C346.04671875 212.328125 346.70671875 212.328125 347.38671875 212.328125 C347.38671875 213.318125 347.38671875 214.308125 347.38671875 215.328125 C389.95671875 214.998125 432.52671875 214.668125 476.38671875 214.328125 C478.20915017 209.77204646 478.63747152 207.72758115 478.64068604 203.0279541 C478.64914551 201.12267693 478.64914551 201.12267693 478.65777588 199.1789093 C478.65388761 197.7787775 478.6497913 196.37864627 478.64550781 194.97851562 C478.64821903 193.49822314 478.65178071 192.01793201 478.65612793 190.53764343 C478.6652386 186.52323531 478.66171314 182.50893009 478.65536976 178.49452019 C478.65030293 174.29146932 478.65500311 170.0884272 478.65814209 165.88537598 C478.66177974 158.8273765 478.65698791 151.7694189 478.64746094 144.71142578 C478.63657677 136.55380412 478.64010249 128.39628244 478.65111375 120.2386632 C478.66019235 113.23216411 478.6614691 106.2256951 478.65623641 99.21919203 C478.65311986 95.03562246 478.65269872 90.85209987 478.65930939 86.66853333 C478.66509054 82.73524614 478.66107188 78.80208775 478.64952087 74.86881447 C478.64687841 73.42606126 478.64763234 71.9832972 478.6520462 70.54054832 C478.65751911 68.56980148 478.64943614 66.59903092 478.64068604 64.6282959 C478.63993198 63.52587303 478.63917793 62.42345016 478.63840103 61.28762054 C478.37382947 58.17656179 477.89769786 56.05989887 476.38671875 53.328125 C472.97507167 51.03674003 469.97449732 51.08067546 465.93656349 51.08596516 C465.28780697 51.08406627 464.63905045 51.08216738 463.97063464 51.08021095 C461.78757666 51.07624669 459.60481798 51.08658046 457.42178345 51.09675598 C455.84438535 51.09676571 454.26698703 51.09587865 452.68958986 51.0941698 C449.25507803 51.09241144 445.82065322 51.09706396 442.38615417 51.1065464 C436.79794539 51.12197452 431.20977867 51.12378191 425.62155151 51.12399292 C417.50651479 51.12559481 409.3915058 51.13369885 401.27647781 51.1454258 C388.44361225 51.16329195 375.61079577 51.15940274 362.77792358 51.15177917 C358.3871632 51.14942382 353.99640277 51.14718409 349.60564232 51.14496136 C348.50825169 51.14439682 347.41086106 51.14383229 346.28021616 51.14325065 C333.78397903 51.1370552 321.2877425 51.13470902 308.79150391 51.13452148 C307.64904219 51.13449805 306.50658047 51.13447461 305.32949869 51.13445046 C286.83198737 51.13470067 268.3345323 51.15379798 249.83703919 51.17811815 C230.84129428 51.20245732 211.84567444 51.19999169 192.84993112 51.17443675 C181.13696208 51.15965386 169.42441363 51.16662969 157.71148603 51.20173784 C149.6770634 51.22395392 141.64290426 51.22062508 133.60848542 51.19743846 C128.97670021 51.18486583 124.34564509 51.18353335 119.71392059 51.21302223 C115.46556424 51.23983815 111.21850579 51.23388745 106.97018938 51.20291051 C105.44112872 51.19737792 103.91196777 51.20344338 102.38302095 51.22290454 C91.25747351 51.35512446 83.87114153 48.90915361 74.38671875 43.328125 C73.64846914 42.97128516 72.91021953 42.61444531 72.14959872 42.24679214 C66.38742608 39.24402466 62.13758186 32.6179631 57.984375 27.75390625 C55.17993736 25.13502539 53.07442959 24.24602683 49.38671875 23.328125 C49.38671875 22.668125 49.38671875 22.008125 49.38671875 21.328125 C45.42671875 20.833125 45.42671875 20.833125 41.38671875 20.328125 C41.38671875 19.668125 41.38671875 19.008125 41.38671875 18.328125 C23.23671875 18.328125 5.08671875 18.328125 -13.61328125 18.328125 C-13.61328125 18.988125 -13.61328125 19.648125 -13.61328125 20.328125 C-15.92328125 20.658125 -18.23328125 20.988125 -20.61328125 21.328125 C-20.61328125 21.988125 -20.61328125 22.648125 -20.61328125 23.328125 C-23.58328125 23.823125 -23.58328125 23.823125 -26.61328125 24.328125 C-26.61328125 24.988125 -26.61328125 25.648125 -26.61328125 26.328125 C-27.60328125 26.328125 -28.59328125 26.328125 -29.61328125 26.328125 C-29.94328125 27.318125 -30.27328125 28.308125 -30.61328125 29.328125 C-31.27328125 29.328125 -31.93328125 29.328125 -32.61328125 29.328125 C-32.94328125 30.318125 -33.27328125 31.308125 -33.61328125 32.328125 C-34.27328125 32.328125 -34.93328125 32.328125 -35.61328125 32.328125 C-35.94328125 33.648125 -36.27328125 34.968125 -36.61328125 36.328125 C-37.27328125 36.328125 -37.93328125 36.328125 -38.61328125 36.328125 C-38.61328125 36.988125 -38.61328125 37.648125 -38.61328125 38.328125 C-40.26330953 39.68199436 -41.93071995 41.01490642 -43.61328125 42.328125 C-43.94328125 42.988125 -44.27328125 43.648125 -44.61328125 44.328125 C-46.49042313 45.43943906 -48.41595644 46.46996345 -50.36328125 47.453125 C-51.41 47.99195313 -52.45671875 48.53078125 -53.53515625 49.0859375 C-56.53588396 50.29689107 -58.4260095 50.59963333 -61.61328125 50.328125 C-61.61328125 50.988125 -61.61328125 51.648125 -61.61328125 52.328125 C-65.04070941 53.36959105 -68.18906937 53.46033288 -71.76196289 53.47288513 C-73.02380402 53.47978363 -74.28564514 53.48668213 -75.58572388 53.49378967 C-76.98162827 53.49650411 -78.37753282 53.49914129 -79.7734375 53.50170898 C-81.24535314 53.50801615 -82.71726688 53.51478213 -84.18917847 53.52197266 C-87.35722456 53.53662931 -90.52526335 53.54835928 -93.69332886 53.55792046 C-98.70191906 53.57337977 -103.71044624 53.59732766 -108.71899414 53.62281799 C-122.96073426 53.69400635 -137.20250996 53.75384995 -151.44433594 53.80493164 C-159.31115558 53.83322281 -167.17791199 53.86859415 -175.04466534 53.91158539 C-180.0244968 53.93837128 -185.00425676 53.95626782 -189.98414612 53.96762264 C-193.08074591 53.97674212 -196.17725867 53.99410037 -199.27380753 54.01380157 C-200.71051797 54.02128068 -202.14725072 54.02535835 -203.58398056 54.02579689 C-205.54421312 54.02687845 -207.50442488 54.04128455 -209.46459961 54.05638123 C-210.56186874 54.06061316 -211.65913788 54.0648451 -212.78965759 54.06920528 C-215.64759156 54.33127118 -217.30385812 54.63134085 -219.61328125 56.328125 C-221.20850396 59.88158663 -220.74622268 64.01549269 -220.72680664 67.85023499 C-220.7269555 68.61107673 -220.72710436 69.37191847 -220.72725773 70.15581602 C-220.7265629 72.70685144 -220.71871911 75.25781498 -220.7109375 77.80883789 C-220.70901851 79.63704894 -220.70755462 81.46526053 -220.70651245 83.29347229 C-220.70335018 87.23092177 -220.69707971 91.16834984 -220.68844604 95.10579109 C-220.67494048 101.32804836 -220.66903318 107.55029847 -220.66430664 113.77256775 C-220.65320024 126.97859636 -220.63366141 140.18460794 -220.61328125 153.390625 C-220.59127985 167.64988487 -220.57069795 181.90913777 -220.55986309 196.1684112 C-220.55487082 202.3578052 -220.54499658 208.5471667 -220.53143311 214.73654759 C-220.52399092 218.58146682 -220.52066136 222.42638153 -220.51846695 226.27130699 C-220.51658975 228.05837904 -220.51297856 229.84545021 -220.50753403 231.63251495 C-220.50035159 234.06603067 -220.49927876 236.4994742 -220.49975586 238.93299866 C-220.49436342 240.00137273 -220.49436342 240.00137273 -220.48886204 241.09133011 C-220.49525859 244.12318668 -220.64582928 246.42576909 -221.61328125 249.328125 C-224.25918139 249.35497179 -226.90481221 249.37488857 -229.55078125 249.390625 C-230.30552734 249.39900391 -231.06027344 249.40738281 -231.83789062 249.41601562 C-233.76322438 249.42464941 -235.68863706 249.38036833 -237.61328125 249.328125 C-239.30562515 247.6357811 -238.74571095 245.52744735 -238.76101094 243.26811075 C-238.7607344 242.17276837 -238.7607344 242.17276837 -238.76045227 241.05529785 C-238.76412896 240.28491857 -238.76780565 239.51453929 -238.77159375 238.72081518 C-238.78267521 236.11920874 -238.78648202 233.51764218 -238.7902832 230.91601562 C-238.79654473 229.0585721 -238.80319125 227.20112984 -238.81019592 225.34368896 C-238.82764023 220.28132623 -238.83816804 215.21897298 -238.84640145 210.1565876 C-238.85154669 206.99409444 -238.85762278 203.83160424 -238.86391258 200.66911316 C-238.8829783 190.77580077 -238.8972038 180.88249589 -238.90552455 170.98916864 C-238.91528865 159.56757866 -238.9415808 148.14618291 -238.98202544 136.72466135 C-239.01220174 127.89994343 -239.02699506 119.07528111 -239.03030556 110.2505126 C-239.03265527 104.97903943 -239.04160471 99.70777342 -239.06676674 94.43635559 C-239.09007737 89.47216123 -239.09426858 84.50830995 -239.08400536 79.54407501 C-239.08351053 77.72565316 -239.08981509 75.90721426 -239.1035614 74.0888443 C-239.22802499 56.64275291 -239.22802499 56.64275291 -234.61328125 49.328125 C-234.28328125 48.668125 -233.95328125 48.008125 -233.61328125 47.328125 C-232.95328125 47.328125 -232.29328125 47.328125 -231.61328125 47.328125 C-231.38640625 46.750625 -231.15953125 46.173125 -230.92578125 45.578125 C-227.83370879 40.27742935 -223.26762666 38.567643 -217.63917923 36.95078087 C-211.77462483 35.74399887 -205.85368746 35.93865187 -199.89208984 35.98754883 C-198.43250547 35.98839667 -196.97291982 35.9879169 -195.51333618 35.98622131 C-191.58005524 35.98536605 -187.64705282 36.002915 -183.71383619 36.02394319 C-179.59257414 36.04278893 -175.4713046 36.04446662 -171.3500061 36.04801941 C-163.55876523 36.0573168 -155.76765174 36.0818991 -147.97646677 36.11206788 C-139.10096831 36.14568399 -130.22546353 36.16211597 -121.34991717 36.17715418 C-103.10429985 36.20845091 -84.85880082 36.26116618 -66.61328125 36.328125 C-66.28328125 35.668125 -65.95328125 35.008125 -65.61328125 34.328125 C-63.05078125 33.703125 -63.05078125 33.703125 -60.61328125 33.328125 C-60.61328125 32.668125 -60.61328125 32.008125 -60.61328125 31.328125 C-57.63059065 29.80363869 -54.79507925 28.38872433 -51.61328125 27.328125 C-51.61328125 26.668125 -51.61328125 26.008125 -51.61328125 25.328125 C-50.95328125 25.328125 -50.29328125 25.328125 -49.61328125 25.328125 C-49.28328125 24.338125 -48.95328125 23.348125 -48.61328125 22.328125 C-47.27994792 21.99479167 -45.94661458 21.66145833 -44.61328125 21.328125 C-44.28328125 20.338125 -43.95328125 19.348125 -43.61328125 18.328125 C-42.95328125 18.328125 -42.29328125 18.328125 -41.61328125 18.328125 C-41.28328125 17.338125 -40.95328125 16.348125 -40.61328125 15.328125 C-39.95328125 15.328125 -39.29328125 15.328125 -38.61328125 15.328125 C-38.32453125 14.709375 -38.03578125 14.090625 -37.73828125 13.453125 C-36.61328125 11.328125 -36.61328125 11.328125 -34.61328125 9.328125 C-33.62328125 9.328125 -32.63328125 9.328125 -31.61328125 9.328125 C-31.61328125 8.668125 -31.61328125 8.008125 -31.61328125 7.328125 C-30.32564741 6.71541035 -29.03281682 6.11361981 -27.73828125 5.515625 C-27.01898438 5.17917969 -26.2996875 4.84273437 -25.55859375 4.49609375 C-16.87892973 1.05415802 -9.3425773 -0.10355724 0 0 Z M234.38671875 224.328125 C232.88296741 224.45887134 231.37545257 224.55022118 229.8671875 224.609375 C229.00931641 224.64675781 228.15144531 224.68414062 227.26757812 224.72265625 C226.37876953 224.75746094 225.48996094 224.79226563 224.57421875 224.828125 C214.89976447 224.44788017 214.89976447 224.44788017 206.38671875 227.328125 C203.29244908 227.90380308 200.18620656 228.35839099 197.07421875 228.828125 C194.47715251 229.04907708 194.47715251 229.04907708 193.38671875 230.328125 C191.70787637 230.7212898 190.0182183 231.06897952 188.32421875 231.390625 C187.40511719 231.56722656 186.48601562 231.74382812 185.5390625 231.92578125 C184.82878906 232.05855469 184.11851562 232.19132813 183.38671875 232.328125 C183.38671875 232.988125 183.38671875 233.648125 183.38671875 234.328125 C182.54109375 234.43125 181.69546875 234.534375 180.82421875 234.640625 C176.97229174 235.4110104 173.94596844 236.69087014 170.38671875 238.328125 C170.38671875 238.988125 170.38671875 239.648125 170.38671875 240.328125 C169.66484375 240.26625 168.94296875 240.204375 168.19921875 240.140625 C164.8247256 240.36559121 163.08077964 241.32682263 160.38671875 243.328125 C160.38671875 243.988125 160.38671875 244.648125 160.38671875 245.328125 C159.39671875 245.658125 158.40671875 245.988125 157.38671875 246.328125 C155.67795415 247.70327041 155.67795415 247.70327041 154.38671875 249.328125 C154.38671875 249.988125 154.38671875 250.648125 154.38671875 251.328125 C153.72671875 251.328125 153.06671875 251.328125 152.38671875 251.328125 C150.56567675 253.50270778 150.56567675 253.50270778 148.76171875 256.203125 C148.13007813 257.10804688 147.4984375 258.01296875 146.84765625 258.9453125 C145.2124877 261.14646206 145.2124877 261.14646206 145.38671875 263.328125 C144.72671875 263.328125 144.06671875 263.328125 143.38671875 263.328125 C143.05671875 265.308125 142.72671875 267.288125 142.38671875 269.328125 C141.72671875 269.328125 141.06671875 269.328125 140.38671875 269.328125 C140.05671875 271.638125 139.72671875 273.948125 139.38671875 276.328125 C138.72671875 276.328125 138.06671875 276.328125 137.38671875 276.328125 C137.05671875 279.958125 136.72671875 283.588125 136.38671875 287.328125 C135.72671875 287.328125 135.06671875 287.328125 134.38671875 287.328125 C134.38671875 302.838125 134.38671875 318.348125 134.38671875 334.328125 C135.04671875 334.328125 135.70671875 334.328125 136.38671875 334.328125 C136.71671875 337.628125 137.04671875 340.928125 137.38671875 344.328125 C138.04671875 344.328125 138.70671875 344.328125 139.38671875 344.328125 C139.71671875 346.968125 140.04671875 349.608125 140.38671875 352.328125 C141.04671875 352.328125 141.70671875 352.328125 142.38671875 352.328125 C142.51046875 353.2975 142.63421875 354.266875 142.76171875 355.265625 C142.96796875 356.27625 143.17421875 357.286875 143.38671875 358.328125 C144.04671875 358.658125 144.70671875 358.988125 145.38671875 359.328125 C146.45703125 361.17578125 146.45703125 361.17578125 147.51171875 363.390625 C147.86492187 364.12410156 148.218125 364.85757813 148.58203125 365.61328125 C148.84757812 366.17917969 149.113125 366.74507812 149.38671875 367.328125 C150.04671875 367.328125 150.70671875 367.328125 151.38671875 367.328125 C151.88171875 369.308125 151.88171875 369.308125 152.38671875 371.328125 C153.04671875 371.328125 153.70671875 371.328125 154.38671875 371.328125 C154.61359375 371.864375 154.84046875 372.400625 155.07421875 372.953125 C157.98364159 378.2177949 161.02392759 381.43221425 166.359375 384.1875 C169.76339477 386.10267105 172.82998539 388.50704756 175.95703125 390.83984375 C178.49156376 392.39234678 180.46127928 392.93771938 183.38671875 393.328125 C183.38671875 393.988125 183.38671875 394.648125 183.38671875 395.328125 C185.44634727 396.00361078 187.50956197 396.66816812 189.57421875 397.328125 C191.29705078 397.885 191.29705078 397.885 193.0546875 398.453125 C196.02992687 399.23443053 198.33955771 399.51175806 201.38671875 399.328125 C201.38671875 399.988125 201.38671875 400.648125 201.38671875 401.328125 C202.07822021 401.38347412 202.76972168 401.43882324 203.48217773 401.49584961 C206.59659089 401.74776031 209.7103897 402.00659851 212.82421875 402.265625 C214.45713867 402.39614258 214.45713867 402.39614258 216.12304688 402.52929688 C217.67475586 402.65981445 217.67475586 402.65981445 219.2578125 402.79296875 C220.6953186 402.91079712 220.6953186 402.91079712 222.16186523 403.03100586 C224.38671875 403.328125 224.38671875 403.328125 225.38671875 404.328125 C226.86320751 404.42636496 228.34447292 404.45786019 229.82421875 404.453125 C230.62730469 404.45570313 231.43039062 404.45828125 232.2578125 404.4609375 C234.44069806 404.46390826 234.44069806 404.46390826 236.38671875 403.328125 C238.18846043 403.12979657 239.99603759 402.98325096 241.8046875 402.86328125 C242.89458984 402.78529297 243.98449219 402.70730469 245.10742188 402.62695312 C247.39891526 402.47074428 249.69058187 402.31705379 251.98242188 402.16601562 C257.73545673 401.75001134 262.92074651 401.18449293 268.38671875 399.328125 C269.96453125 398.9259375 269.96453125 398.9259375 271.57421875 398.515625 C284.33575742 394.54071951 296.14708525 388.93397653 306.38671875 380.328125 C307.05058594 379.77511719 307.71445312 379.22210938 308.3984375 378.65234375 C312.56406322 375.17054257 312.56406322 375.17054257 316.38671875 371.328125 C316.38671875 370.668125 316.38671875 370.008125 316.38671875 369.328125 C317.04671875 369.328125 317.70671875 369.328125 318.38671875 369.328125 C321.3490757 365.69488811 321.3490757 365.69488811 322.38671875 361.328125 C323.04671875 361.328125 323.70671875 361.328125 324.38671875 361.328125 C324.71671875 359.678125 325.04671875 358.028125 325.38671875 356.328125 C326.04671875 356.328125 326.70671875 356.328125 327.38671875 356.328125 C328.05976893 354.72662614 328.72494102 353.12181471 329.38671875 351.515625 C329.75796875 350.62230469 330.12921875 349.72898437 330.51171875 348.80859375 C331.55305112 346.2949817 331.55305112 346.2949817 331.38671875 343.328125 C332.04671875 343.328125 332.70671875 343.328125 333.38671875 343.328125 C334.05993159 341.08007498 334.72505998 338.82960276 335.38671875 336.578125 C335.75796875 335.32515625 336.12921875 334.0721875 336.51171875 332.78125 C337.55047247 329.27559268 337.55047247 329.27559268 337.38671875 325.328125 C338.04671875 325.328125 338.70671875 325.328125 339.38671875 325.328125 C339.71671875 319.718125 340.04671875 314.108125 340.38671875 308.328125 C341.04671875 308.328125 341.70671875 308.328125 342.38671875 308.328125 C342.38671875 294.138125 342.38671875 279.948125 342.38671875 265.328125 C341.72671875 265.328125 341.06671875 265.328125 340.38671875 265.328125 C340.05671875 259.058125 339.72671875 252.788125 339.38671875 246.328125 C338.72671875 246.328125 338.06671875 246.328125 337.38671875 246.328125 C337.33773437 245.56886719 337.28875 244.80960938 337.23828125 244.02734375 C337.12613281 242.53654297 337.12613281 242.53654297 337.01171875 241.015625 C336.90730469 239.53642578 336.90730469 239.53642578 336.80078125 238.02734375 C336.54806403 235.11284067 336.54806403 235.11284067 334.38671875 232.328125 C332.50025233 231.76361363 332.50025233 231.76361363 330.31640625 231.66796875 C329.094375 231.5606543 329.094375 231.5606543 327.84765625 231.45117188 C326.56761719 231.35932617 326.56761719 231.35932617 325.26171875 231.265625 C315.76842467 230.52119744 315.76842467 230.52119744 311.140625 229.3046875 C307.82718559 228.44271055 304.85179155 227.98991802 301.44921875 227.765625 C296.48996359 227.43136984 296.48996359 227.43136984 295.38671875 226.328125 C286.99064781 225.14115447 278.56328678 224.98418031 270.09765625 224.72265625 C269.02 224.68527344 267.94234375 224.64789063 266.83203125 224.609375 C265.85766113 224.57908203 264.88329102 224.54878906 263.87939453 224.51757812 C261.38671875 224.328125 261.38671875 224.328125 258.38671875 223.328125 C256.87977773 223.23584554 255.36913729 223.19744989 253.859375 223.1953125 C252.98474609 223.19402344 252.11011719 223.19273437 251.20898438 223.19140625 C250.29826172 223.19527344 249.38753906 223.19914063 248.44921875 223.203125 C247.54236328 223.19925781 246.63550781 223.19539062 245.70117188 223.19140625 C244.82525391 223.19269531 243.94933594 223.19398438 243.046875 223.1953125 C241.85010132 223.19700439 241.85010132 223.19700439 240.62915039 223.19873047 C238.4144225 223.32652642 236.52934759 223.78012062 234.38671875 224.328125 Z " fill="#EFEFEF" transform="translate(267.61328125,35.671875)"/>
<path d="M0 0 C108.9 0 217.8 0 330 0 C330 5.28 330 10.56 330 16 C329 17 329 17 326.75341982 17.1241985 C325.24574025 17.12362892 325.24574025 17.12362892 323.7076025 17.12304783 C321.97511002 17.1260344 321.97511002 17.1260344 320.2076177 17.12908131 C318.92262666 17.12616847 317.63763561 17.12325563 316.31370544 17.12025452 C314.94753327 17.1206901 313.58136117 17.12156476 312.21518952 17.12284368 C308.44351737 17.12509121 304.67187334 17.12106387 300.90020478 17.11606562 C296.83951638 17.11176497 292.77882968 17.11320727 288.71813965 17.1139679 C281.67689574 17.11449338 274.63566107 17.11134406 267.59441948 17.10573006 C257.4138462 17.09761831 247.2332774 17.09500017 237.05270124 17.09374207 C220.53716613 17.09155103 204.02163595 17.08488956 187.50610352 17.07543945 C171.45857773 17.06626666 155.41105327 17.05918518 139.36352539 17.05493164 C138.37509258 17.05466892 137.38665977 17.05440619 136.36827444 17.05413551 C131.4098175 17.05283051 126.45136055 17.0515668 121.49290359 17.05032361 C80.32859897 17.03994939 39.16429976 17.02232969 -2 17 C-2 16.34 -2 15.68 -2 15 C106.9 15 215.8 15 328 15 C328 10.38 328 5.76 328 1 C219.76 1 111.52 1 0 1 C0 0.67 0 0.34 0 0 Z " fill="#333333" transform="translate(174,525)"/>
<path d="M0 0 C1.65 0 3.3 0 5 0 C5 0.66 5 1.32 5 2 C197.06 2.495 197.06 2.495 393 3 C393.33 3.99 393.66 4.98 394 6 C394.66 6 395.32 6 396 6 C396 6.66 396 7.32 396 8 C395.47338012 7.67516738 394.94676025 7.35033477 394.4041822 7.01565874 C391.31703416 5.71147768 388.8854144 5.74977803 385.53308487 5.74946022 C384.88253077 5.74666254 384.23197667 5.74386487 383.56170881 5.74098241 C381.37260848 5.73400045 379.18378642 5.74129269 376.99468994 5.7484436 C375.41301452 5.74630581 373.83134009 5.74328095 372.24966788 5.73944318 C367.89591723 5.73138556 363.54225223 5.73571832 359.18850183 5.74196196 C354.49579876 5.74648719 349.80311225 5.73945999 345.1104126 5.73365784 C336.97572493 5.72501611 328.84105901 5.72321882 320.70636749 5.72560501 C308.93618853 5.72869911 297.16605777 5.71707611 285.39589092 5.70105521 C266.28899669 5.67507825 247.18210243 5.65506745 228.07519531 5.64160156 C226.93115973 5.64079119 225.78712415 5.63998082 224.60842082 5.6391459 C208.37541003 5.627926 192.14240266 5.6226438 175.90938851 5.61975877 C174.76656569 5.61955478 173.62374288 5.61935079 172.44628906 5.61914062 C171.30485688 5.61894069 170.1634247 5.61874075 168.98740366 5.61853476 C149.95780346 5.61480265 130.92825546 5.5957223 111.8986814 5.56404626 C100.15816952 5.54512134 88.41779142 5.53917656 76.67726848 5.54986344 C68.63172611 5.55617933 60.58627971 5.54815108 52.5407584 5.52880932 C47.89775043 5.51811932 43.25497545 5.51398939 38.61196899 5.52728081 C34.36051346 5.53932919 30.10949483 5.53298437 25.85807726 5.51208882 C24.32105623 5.50778542 22.78399824 5.5102238 21.24700311 5.52012999 C13.27051842 5.56780256 6.87168973 5.46349251 0 1 C0 0.67 0 0.34 0 0 Z " fill="#9E9E9E" transform="translate(348,81)"/>
<path d="M0 0 C1.33332095 2.6666419 0.67102033 4.16680303 0 7 C-0.66 7 -1.32 7 -2 7 C-2 119.53 -2 232.06 -2 348 C-5.13973119 343.81369175 -5.3753515 343.17993162 -5.38031673 338.29833603 C-5.38875668 337.12836791 -5.39719662 335.95839979 -5.40589231 334.75297809 C-5.39988227 333.46661873 -5.39387222 332.18025938 -5.38768005 330.85491943 C-5.39185187 329.47535621 -5.39732855 328.09579643 -5.40399987 326.71624303 C-5.41849388 322.92113 -5.41419747 319.12623341 -5.40683305 315.33110833 C-5.40211329 311.2396236 -5.41460081 307.14818651 -5.42485046 303.05671692 C-5.44206861 295.03875055 -5.44287205 287.02086245 -5.43763756 279.00288239 C-5.4335994 272.48558914 -5.43503522 265.96831906 -5.44038582 259.45102692 C-5.44150845 258.06068551 -5.44150845 258.06068551 -5.44265376 256.64225639 C-5.44418522 254.75935337 -5.44572357 252.87645036 -5.44726873 250.99354735 C-5.46100526 233.32486328 -5.45554852 215.65622346 -5.44408352 197.98754039 C-5.43415504 181.82360575 -5.4470831 165.65978563 -5.47101771 149.49586865 C-5.49540306 132.90258937 -5.50501765 116.30936344 -5.49836498 99.7160666 C-5.49487085 90.39874839 -5.49711736 81.08151823 -5.51461601 71.76421356 C-5.52933115 63.83045077 -5.52998272 55.89683799 -5.5125451 47.96307817 C-5.50402606 43.91548273 -5.50190733 39.86815534 -5.51719666 35.82057381 C-5.53102761 32.11312523 -5.52630153 28.40617471 -5.50695742 24.69875506 C-5.50141204 22.72649431 -5.51548252 20.75420832 -5.53031152 18.78199553 C-5.47262908 11.84432585 -5.23547404 5.23547404 0 0 Z " fill="#202020" transform="translate(156,177)"/>
<path d="M0 0 C2.45898655 -0.08076963 4.91533742 -0.14037143 7.375 -0.1875 C8.07367188 -0.21263672 8.77234375 -0.23777344 9.4921875 -0.26367188 C11.5234375 -0.29296875 11.5234375 -0.29296875 15 0 C17.40731303 3.61096954 17.24532773 5.27565669 17.23046875 9.56640625 C17.22853516 10.85611328 17.22660156 12.14582031 17.22460938 13.47460938 C17.21530396 14.48044067 17.21530396 14.48044067 17.20581055 15.5065918 C17.18753512 17.55855703 17.18530109 19.61007118 17.18554688 21.66210938 C17.14026612 31.71946776 17.14026612 31.71946776 16 34 C13.35409986 34.02684679 10.70846904 34.04676357 8.0625 34.0625 C7.30775391 34.07087891 6.55300781 34.07925781 5.77539062 34.08789062 C3.85005687 34.09652441 1.92464419 34.05224333 0 34 C-1.90445326 32.09554674 -1.13058862 28.71662463 -1.1328125 26.19140625 C-1.13376923 25.50948715 -1.13472595 24.82756805 -1.13571167 24.12498474 C-1.13639339 22.67992053 -1.13453969 21.23485328 -1.13037109 19.78979492 C-1.12503084 17.57528807 -1.13031205 15.36098481 -1.13671875 13.14648438 C-1.13605781 11.74479122 -1.13477631 10.34309819 -1.1328125 8.94140625 C-1.13168457 7.65951416 -1.13055664 6.37762207 -1.12939453 5.05688477 C-1 2 -1 2 0 0 Z " fill="#BABABA" transform="translate(30,491)"/>
<path d="M0 0 C0.69416016 -0.020625 1.38832031 -0.04125 2.10351562 -0.0625 C4.12109375 -0.078125 4.12109375 -0.078125 7.5625 0.25 C9.93380074 3.80695111 9.80818527 5.34722556 9.79296875 9.5625 C9.79103516 10.80257813 9.78910156 12.04265625 9.78710938 13.3203125 C9.76874023 15.26550781 9.76874023 15.26550781 9.75 17.25 C9.74935547 18.54679687 9.74871094 19.84359375 9.74804688 21.1796875 C9.70291085 30.82876746 9.70291085 30.82876746 8.5625 34.25 C5.91659986 34.27684679 3.27096904 34.29676357 0.625 34.3125 C-0.12974609 34.32087891 -0.88449219 34.32925781 -1.66210938 34.33789062 C-3.58744313 34.34652441 -5.51285581 34.30224333 -7.4375 34.25 C-9.11423649 32.57326351 -8.56537817 30.52144924 -8.57644653 28.28344727 C-8.5744223 27.59178467 -8.57239807 26.90012207 -8.5703125 26.1875 C-8.57126923 25.48101318 -8.57222595 24.77452637 -8.57321167 24.04663086 C-8.57389333 22.55029207 -8.57204005 21.05395033 -8.56787109 19.55761719 C-8.56252257 17.25969843 -8.56781651 14.96197514 -8.57421875 12.6640625 C-8.57355797 11.21354123 -8.5722768 9.76302009 -8.5703125 8.3125 C-8.57233673 7.6208374 -8.57436096 6.9291748 -8.57644653 6.21655273 C-8.54172884 -0.80329795 -6.32612795 0.0467304 0 0 Z " fill="#E6E6E6" transform="translate(37.4375,370.75)"/>
<path d="M0 0 C1.48831242 0.00667405 2.97660807 0.01863442 4.46484375 0.03515625 C5.22345703 0.03966797 5.98207031 0.04417969 6.76367188 0.04882812 C8.64326246 0.06064945 10.52281274 0.07858547 12.40234375 0.09765625 C14.51052773 4.31402421 13.588202 9.83584118 13.58764648 14.47387695 C13.58983166 16.52381182 13.60798909 18.57320734 13.62695312 20.62304688 C13.62985352 22.55760742 13.62985352 22.55760742 13.6328125 24.53125 C13.63692139 25.71775146 13.64103027 26.90425293 13.64526367 28.12670898 C13.40234375 31.09765625 13.40234375 31.09765625 11.40234375 34.09765625 C8.77537311 34.31903018 6.39340411 34.3792765 3.77734375 34.28515625 C3.0709375 34.27162109 2.36453125 34.25808594 1.63671875 34.24414062 C-0.10839753 34.20876665 -1.85312233 34.15495846 -3.59765625 34.09765625 C-5.07890669 31.13515538 -4.72756309 28.4585273 -4.73046875 25.15625 C-4.73142548 24.47337418 -4.7323822 23.79049835 -4.73336792 23.08692932 C-4.73404848 21.6436453 -4.73220285 20.20035822 -4.72802734 18.75708008 C-4.72266907 16.54045797 -4.72798068 14.32403773 -4.734375 12.10742188 C-4.73371436 10.7070308 -4.73243348 9.30663985 -4.73046875 7.90625 C-4.72934082 6.62548584 -4.72821289 5.34472168 -4.72705078 4.02514648 C-4.53727099 -0.26853168 -4.42150864 0.12001924 0 0 Z " fill="#C0C0C0" transform="translate(33.59765625,311.90234375)"/>
<path d="M0 0 C5.28 0 10.56 0 16 0 C17.10665421 3.31996264 17.12934856 5.81688599 17.1328125 9.3125 C17.13410156 10.55257813 17.13539062 11.79265625 17.13671875 13.0703125 C17.13285156 14.36710937 17.12898438 15.66390625 17.125 17 C17.13080078 18.94519531 17.13080078 18.94519531 17.13671875 20.9296875 C17.13542969 22.16976563 17.13414063 23.40984375 17.1328125 24.6875 C17.13168457 25.82574219 17.13055664 26.96398437 17.12939453 28.13671875 C17 31 17 31 16 34 C10.72 34 5.44 34 0 34 C-1.45112776 31.09774449 -1.12985159 28.55088766 -1.1328125 25.3125 C-1.13376923 24.65419189 -1.13472595 23.99588379 -1.13571167 23.31762695 C-1.13639225 21.92561752 -1.13454646 20.5336049 -1.13037109 19.14160156 C-1.12502104 17.00839117 -1.13032012 14.87539133 -1.13671875 12.7421875 C-1.13605795 11.39062453 -1.13477674 10.0390617 -1.1328125 8.6875 C-1.13112061 6.83705078 -1.13112061 6.83705078 -1.12939453 4.94921875 C-1 2 -1 2 0 0 Z " fill="#FAFAFA" transform="translate(30,432)"/>
<path d="M0 0 C11.22 0 22.44 0 34 0 C34 5.28 34 10.56 34 16 C33 17 33 17 29.85717773 17.11352539 C28.46597303 17.11336633 27.07476239 17.10767506 25.68359375 17.09765625 C24.95253922 17.0962413 24.22148468 17.09482635 23.46827698 17.09336853 C21.12464368 17.08775408 18.78110461 17.07519922 16.4375 17.0625 C14.85221492 17.05748686 13.26692834 17.05292363 11.68164062 17.04882812 C7.78769457 17.03862921 3.89395323 17.01905687 0 17 C0 11.39 0 5.78 0 0 Z " fill="#D4D4D4" transform="translate(651,525)"/>
<path d="M0 0 C11.22 0 22.44 0 34 0 C34 5.28 34 10.56 34 16 C33 17 33 17 29.85717773 17.11352539 C28.46597303 17.11336633 27.07476239 17.10767506 25.68359375 17.09765625 C24.95253922 17.0962413 24.22148468 17.09482635 23.46827698 17.09336853 C21.12464368 17.08775408 18.78110461 17.07519922 16.4375 17.0625 C14.85221492 17.05748686 13.26692834 17.05292363 11.68164062 17.04882812 C7.78769457 17.03862921 3.89395323 17.01905687 0 17 C0 11.39 0 5.78 0 0 Z " fill="#D6D6D6" transform="translate(531,525)"/>
<path d="M0 0 C10.56 0 21.12 0 32 0 C32 5.61 32 11.22 32 17 C21.44 17 10.88 17 0 17 C0 11.39 0 5.78 0 0 Z " fill="#D8D8D8" transform="translate(712,525)"/>
<path d="M0 0 C10.56 0 21.12 0 32 0 C32 5.61 32 11.22 32 17 C21.44 17 10.88 17 0 17 C0 11.39 0 5.78 0 0 Z " fill="#DBDBDB" transform="translate(592,525)"/>
<path d="M0 0 C0.66 0.33 1.32 0.66 2 1 C0.5484451 2.67257355 -0.91144409 4.33791758 -2.375 6 C-3.18710937 6.928125 -3.99921875 7.85625 -4.8359375 8.8125 C-5.55007812 9.534375 -6.26421875 10.25625 -7 11 C-7.66 11 -8.32 11 -9 11 C-10.52945175 16.44193792 -11.29404099 21.39400261 -11.2784729 27.0612793 C-11.2871615 28.21696883 -11.2871615 28.21696883 -11.29602563 29.39600563 C-11.31291416 31.9554535 -11.31589244 34.51471984 -11.31884766 37.07421875 C-11.32815354 38.91774431 -11.33832319 40.76126567 -11.34928894 42.6047821 C-11.37652852 47.59380981 -11.39172043 52.58280937 -11.40471697 57.57189178 C-11.42037397 62.79161293 -11.447156 68.01127684 -11.4727478 73.23095703 C-11.51949012 83.10818231 -11.55625624 92.98541842 -11.58942068 102.8626976 C-11.6276742 114.11058848 -11.67707591 125.3584218 -11.72740483 136.60626411 C-11.83065706 159.73746672 -11.91993927 182.86870632 -12 206 C-12.66 206 -13.32 206 -14 206 C-14.09349139 181.77370317 -14.16400283 157.54743344 -14.20724869 133.32099247 C-14.22786328 122.07192513 -14.25596292 110.82296995 -14.30175781 99.57397461 C-14.34165919 89.76796866 -14.36744083 79.96204395 -14.37635398 70.15595907 C-14.3815631 64.96493974 -14.39378367 59.77415284 -14.42292023 54.58320808 C-14.45014138 49.69373214 -14.45843142 44.80458359 -14.45243073 39.91503906 C-14.45352796 38.12402503 -14.46144183 36.33299965 -14.4768219 34.54205132 C-14.61710928 17.35814224 -14.61710928 17.35814224 -10 10 C-9.67 9.34 -9.34 8.68 -9 8 C-8.34 8 -7.68 8 -7 8 C-6.773125 7.4225 -6.54625 6.845 -6.3125 6.25 C-4.66961977 3.4336339 -2.60466773 1.91922886 0 0 Z " fill="#4A4A4A" transform="translate(43,75)"/>
<path d="M0 0 C0.76482529 0.14114428 1.52965059 0.28228856 2.3176524 0.42770994 C10.91431391 1.89677996 19.25952478 2.29219255 27.96455383 2.2784729 C29.43183118 2.2834876 30.89910577 2.28936679 32.36637658 2.29602563 C36.36177505 2.31169772 40.35710296 2.31524919 44.35252845 2.31667423 C48.67478711 2.32039084 52.99700805 2.3355574 57.31924438 2.34928894 C64.79570935 2.37149498 72.27216077 2.38654816 79.7486515 2.39665604 C90.55821725 2.41128055 101.36773582 2.43682784 112.17727377 2.46498732 C129.71769798 2.51038695 147.25812901 2.54702991 164.79858398 2.578125 C181.83114824 2.60833857 198.86369584 2.6427017 215.89624023 2.68261719 C217.47273128 2.68630951 217.47273128 2.68630951 219.08107064 2.69007643 C224.35392971 2.70245157 229.62678858 2.714908 234.89964736 2.72740483 C278.59974166 2.83087031 322.29985666 2.92010723 366 3 C366 3.33 366 3.66 366 4 C320.49506442 4.15037126 274.99011455 4.2954011 229.48513921 4.4332476 C224.11525545 4.44951897 218.74537183 4.46583466 213.37548828 4.48217773 C211.77188894 4.48705712 211.77188894 4.48705712 210.13589366 4.49203508 C192.81611294 4.54484096 175.49634567 4.60123824 158.17658071 4.6589582 C140.4105075 4.71808577 122.64442534 4.77336446 104.87832892 4.82505554 C93.91198286 4.85708426 82.94565491 4.89213025 71.97933097 4.93101191 C64.46363694 4.95737185 56.9479375 4.97999987 49.43222301 4.99967117 C45.09334492 5.01113845 40.75448842 5.02427224 36.41563034 5.04183006 C32.444312 5.05786432 28.47300894 5.06921807 24.50166579 5.07683109 C23.06414712 5.08041627 21.62663152 5.08572703 20.18912642 5.09292836 C18.23587011 5.10246204 16.28258385 5.10511516 14.32930565 5.10743046 C13.24406494 5.11084794 12.15882424 5.11426542 11.04069746 5.11778647 C7.95061663 4.99808705 5.03565554 4.57496336 2 4 C2 3.34 2 2.68 2 2 C1.34 2 0.68 2 0 2 C0 1.34 0 0.68 0 0 Z " fill="#EDEDED" transform="translate(356,67)"/>
<path d="M0 0 C0 0.66 0 1.32 0 2 C-3.42742816 3.04146605 -6.57578812 3.13220788 -10.14868164 3.14476013 C-11.41052277 3.15165863 -12.67236389 3.15855713 -13.97244263 3.16566467 C-15.36834702 3.16837911 -16.76425157 3.17101629 -18.16015625 3.17358398 C-19.63207189 3.17989115 -21.10398563 3.18665713 -22.57589722 3.19384766 C-25.74394331 3.20850431 -28.9119821 3.22023428 -32.08004761 3.22979546 C-37.08863781 3.24525477 -42.09716499 3.26920266 -47.10571289 3.29469299 C-61.34745301 3.36588135 -75.58922871 3.42572495 -89.83105469 3.47680664 C-97.69787433 3.50509781 -105.56463074 3.54046915 -113.43138409 3.58346039 C-118.41121555 3.61024628 -123.39097551 3.62814282 -128.37086487 3.63949764 C-131.46746466 3.64861712 -134.56397742 3.66597537 -137.66052628 3.68567657 C-139.09723672 3.69315568 -140.53396947 3.69723335 -141.97069931 3.69767189 C-143.93093187 3.69875345 -145.89114363 3.71315955 -147.85131836 3.72825623 C-149.49722206 3.73460413 -149.49722206 3.73460413 -151.17637634 3.74108028 C-153.96814548 3.99707901 -155.62666741 4.55603561 -158 6 C-157.67 5.01 -157.34 4.02 -157 3 C-156.34 3 -155.68 3 -155 3 C-155 2.34 -155 1.68 -155 1 C-153.91966444 1.00138269 -153.91966444 1.00138269 -152.81750393 1.00279331 C-135.281783 1.02489084 -117.74606561 1.0414322 -100.21033382 1.05181217 C-91.73014259 1.05696544 -83.24996066 1.06398969 -74.76977539 1.07543945 C-67.37727224 1.08541588 -59.98477583 1.09186048 -52.59226614 1.09408849 C-48.67908078 1.09539057 -44.7659147 1.0984446 -40.85273552 1.10573006 C-37.16660229 1.11253695 -33.48049621 1.11460747 -29.7943573 1.11310768 C-27.802563 1.11351228 -25.81077163 1.1188831 -23.81898499 1.12442017 C-15.81381195 1.11521928 -7.96370999 -0.16252469 0 0 Z " fill="#A5A5A5" transform="translate(206,86)"/>
<path d="M0 0 C0.66 0 1.32 0 2 0 C2 0.99 2 1.98 2 3 C43.25 3 84.5 3 127 3 C127 3.66 127 4.32 127 5 C85.09 5 43.18 5 0 5 C0 3.35 0 1.7 0 0 Z " fill="#A8A8A8" transform="translate(613,248)"/>
<path d="M0 0 C2 3 2 3 2 6 C2.66 6 3.32 6 4 6 C4 59.13 4 112.26 4 167 C3.34 167 2.68 167 2 167 C1.67 168.98 1.34 170.96 1 173 C0.67 173 0.34 173 0 173 C0.14049518 171.52031676 0.28754826 170.04125484 0.4375 168.5625 C0.51871094 167.73878906 0.59992187 166.91507813 0.68359375 166.06640625 C1 164 1 164 2 163 C2.10105674 161.03931277 2.13077397 159.07493617 2.13371277 157.11164856 C2.13797775 155.83157928 2.14224274 154.55151001 2.14663696 153.23265076 C2.14628739 151.80068967 2.14582583 150.3687286 2.14526367 148.93676758 C2.14825364 147.43898433 2.15165578 145.94120186 2.15544128 144.44342041 C2.16430504 140.3626243 2.16662047 136.28184913 2.16725707 132.20104432 C2.16820478 128.79665774 2.17188173 125.39227607 2.17542917 121.98789138 C2.1835838 113.95375775 2.1860126 105.91963533 2.18530273 97.88549805 C2.18470261 89.59733808 2.19523896 81.30924334 2.2110464 73.02109987 C2.22412697 65.90936438 2.22948637 58.79765019 2.22884732 51.68590277 C2.22859236 47.43684233 2.23144227 43.18783974 2.24202538 38.93879128 C2.25171429 34.93908236 2.25178009 30.93948648 2.24450874 26.93977356 C2.24346368 25.47325157 2.24582116 24.00672252 2.2518692 22.54021263 C2.25960327 20.53457929 2.25373857 18.52890737 2.24723816 16.52326965 C2.24778293 15.40182462 2.24832769 14.28037958 2.24888897 13.12495136 C1.98410921 9.80048152 1.08725113 7.13879097 0 4 C0 2.68 0 1.36 0 0 Z " fill="#232323" transform="translate(760,83)"/>
<path d="M0 0 C5.28 0 10.56 0 16 0 C17.10665421 3.31996264 17.12934856 5.81688599 17.1328125 9.3125 C17.13410156 10.55257813 17.13539062 11.79265625 17.13671875 13.0703125 C17.13285156 14.36710937 17.12898438 15.66390625 17.125 17 C17.13080078 18.94519531 17.13080078 18.94519531 17.13671875 20.9296875 C17.13542969 22.16976563 17.13414063 23.40984375 17.1328125 24.6875 C17.13168457 25.82574219 17.13055664 26.96398437 17.12939453 28.13671875 C17 31 17 31 16 34 C10.72 34 5.44 34 0 34 C-1.40912096 31.18175808 -1.11183553 28.82748718 -1.09765625 25.6796875 C-1.09443359 24.42285156 -1.09121094 23.16601562 -1.08789062 21.87109375 C-1.07951172 20.55238281 -1.07113281 19.23367188 -1.0625 17.875 C-1.05748489 16.53515789 -1.05292201 15.195314 -1.04882812 13.85546875 C-1.03701086 10.57026794 -1.02053617 7.28515603 -1 4 C-0.34 4 0.32 4 1 4 C1 13.57 1 23.14 1 33 C5.62 33 10.24 33 15 33 C14.67 32.34 14.34 31.68 14 31 C13.91440882 28.82175039 13.89286588 26.64084745 13.90234375 24.4609375 C13.90556641 23.15898437 13.90878906 21.85703125 13.91210938 20.515625 C13.92046534 19.13541601 13.92893029 17.75520768 13.9375 16.375 C13.94251499 14.98698074 13.9470779 13.59895978 13.95117188 12.2109375 C13.96299015 8.80727327 13.9809261 5.4036313 14 2 C9.38 2 4.76 2 0 2 C0 1.34 0 0.68 0 0 Z " fill="#3F3F3F" transform="translate(30,432)"/>
<path d="M0 0 C0.33 0 0.66 0 1 0 C1.13277344 1.26457031 1.26554688 2.52914063 1.40234375 3.83203125 C1.58055463 5.49220625 1.75894963 7.15236148 1.9375 8.8125 C2.02451172 9.64587891 2.11152344 10.47925781 2.20117188 11.33789062 C2.28818359 12.14033203 2.37519531 12.94277344 2.46484375 13.76953125 C2.543396 14.50792236 2.62194824 15.24631348 2.70288086 16.00708008 C2.97151996 18.20269378 2.97151996 18.20269378 4 21 C4.10906699 23.71054392 4.1640445 26.39455626 4.16796875 29.10546875 C4.17129715 29.90350418 4.17462555 30.70153961 4.17805481 31.52375793 C4.18311733 33.21415634 4.18546334 34.90456473 4.18530273 36.5949707 C4.18747711 39.16049081 4.20560609 41.72557228 4.22460938 44.29101562 C4.227546 45.93749854 4.22952899 47.58398348 4.23046875 49.23046875 C4.23765427 49.98909714 4.24483978 50.74772552 4.25224304 51.52934265 C4.23058507 56.67156814 3.36816444 61.04283937 2 66 C1.73733957 68.16075374 1.52306485 70.32838216 1.375 72.5 C1.30023437 73.5415625 1.22546875 74.583125 1.1484375 75.65625 C1.09945312 76.4296875 1.05046875 77.203125 1 78 C0.34 78 -0.32 78 -1 78 C-1.33 79.32 -1.66 80.64 -2 82 C-1.67 75.4 -1.34 68.8 -1 62 C-0.34 62 0.32 62 1 62 C2.0489409 53.74849249 2.18329014 45.56027333 2.1875 37.25 C2.19974609 35.96222656 2.21199219 34.67445313 2.22460938 33.34765625 C2.22654297 32.10371094 2.22847656 30.85976563 2.23046875 29.578125 C2.23457764 28.45825195 2.23868652 27.33837891 2.24291992 26.18457031 C1.98645519 22.82243366 1.16773268 20.15068021 0 17 C-1.13265528 11.90305122 -2.42057673 4.84115346 0 0 Z " fill="#4D4D4D" transform="translate(623,283)"/>
<path d="M0 0 C2.45898655 -0.08076963 4.91533742 -0.14037143 7.375 -0.1875 C8.07367188 -0.21263672 8.77234375 -0.23777344 9.4921875 -0.26367188 C11.5234375 -0.29296875 11.5234375 -0.29296875 15 0 C17.37130074 3.55695111 17.24568527 5.09722556 17.23046875 9.3125 C17.22853516 10.55257813 17.22660156 11.79265625 17.22460938 13.0703125 C17.20624023 15.01550781 17.20624023 15.01550781 17.1875 17 C17.18685547 18.29679687 17.18621094 19.59359375 17.18554688 20.9296875 C17.14041085 30.57876746 17.14041085 30.57876746 16 34 C10.72 34 5.44 34 0 34 C-0.33 33.34 -0.66 32.68 -1 32 C4.28 32.33 9.56 32.66 15 33 C14.67 32.34 14.34 31.68 14 31 C13.91456105 28.89471067 13.89285275 26.78668843 13.90234375 24.6796875 C13.90556641 23.42285156 13.90878906 22.16601562 13.91210938 20.87109375 C13.92048828 19.55238281 13.92886719 18.23367188 13.9375 16.875 C13.94251511 15.53515789 13.94707799 14.195314 13.95117188 12.85546875 C13.96298905 9.57029343 13.98092499 6.28514119 14 3 C9.05 2.67 4.1 2.34 -1 2 C-0.67 1.34 -0.34 0.68 0 0 Z " fill="#3B3B3B" transform="translate(30,371)"/>
<path d="M0 0 C0.769953 0.0007251 1.53990601 0.0014502 2.33319092 0.00219727 C3.10024353 0.00147217 3.86729614 0.00074707 4.65759277 0 C17.41151493 0.00133671 29.97559854 0.65724549 42.64569092 2.18969727 C42.64569092 2.51969727 42.64569092 2.84969727 42.64569092 3.18969727 C38.87487369 3.21869326 35.10408509 3.23649455 31.33319092 3.25219727 C29.72540771 3.26476562 29.72540771 3.26476562 28.08514404 3.27758789 C27.0571167 3.28081055 26.02908936 3.2840332 24.96990967 3.28735352 C24.0220459 3.29259033 23.07418213 3.29782715 22.09759521 3.30322266 C19.64569092 3.18969727 19.64569092 3.18969727 16.64569092 2.18969727 C15.1387499 2.0974178 13.62810946 2.05902216 12.11834717 2.05688477 C11.24371826 2.0555957 10.36908936 2.05430664 9.46795654 2.05297852 C8.55723389 2.0568457 7.64651123 2.06071289 6.70819092 2.06469727 C5.80133545 2.06083008 4.89447998 2.05696289 3.96014404 2.05297852 C3.08422607 2.05426758 2.20830811 2.05555664 1.30584717 2.05688477 C0.10907349 2.05857666 0.10907349 2.05857666 -1.11187744 2.06030273 C-3.32191247 2.11668217 -3.32191247 2.11668217 -5.27935791 2.67822266 C-7.94144885 3.33442698 -10.47426534 3.40826713 -13.21368408 3.50610352 C-14.88624268 3.56894531 -14.88624268 3.56894531 -16.59259033 3.63305664 C-17.75145752 3.67237305 -18.91032471 3.71168945 -20.10430908 3.75219727 C-21.27864502 3.79538086 -22.45298096 3.83856445 -23.66290283 3.88305664 C-26.55992359 3.9890452 -29.45702843 4.09111365 -32.35430908 4.18969727 C-32.35430908 3.52969727 -32.35430908 2.86969727 -32.35430908 2.18969727 C-31.06653564 2.12911133 -29.77876221 2.06852539 -28.45196533 2.00610352 C-26.77356749 1.9217148 -25.09518272 1.83706597 -23.41680908 1.75219727 C-22.141604 1.69322266 -22.141604 1.69322266 -20.84063721 1.63305664 C-20.03175049 1.59116211 -19.22286377 1.54926758 -18.38946533 1.50610352 C-17.26616821 1.45111694 -17.26616821 1.45111694 -16.12017822 1.39501953 C-4.12613109 0.00044002 -4.12613109 0.00044002 0 0 Z " fill="#555555" transform="translate(509.35430908203125,257.810302734375)"/>
<path d="M0 0 C-1.65 0.66 -3.3 1.32 -5 2 C-5 2.33 -5 2.66 -5 3 C-9.455 3.495 -9.455 3.495 -14 4 C-14 4.66 -14 5.32 -14 6 C-16.64 6.33 -19.28 6.66 -22 7 C-22 7.66 -22 8.32 -22 9 C-22.99902344 9.13277344 -23.99804688 9.26554687 -25.02734375 9.40234375 C-26.31769531 9.57894531 -27.60804688 9.75554687 -28.9375 9.9375 C-30.22527344 10.11152344 -31.51304687 10.28554688 -32.83984375 10.46484375 C-35.85466313 10.66162423 -35.85466313 10.66162423 -37 12 C-44.29996994 12.97413108 -51.6459071 13.14643105 -59 13 C-58.67 12.34 -58.34 11.68 -58 11 C-52.06 11 -46.12 11 -40 11 C-40 10.34 -40 9.68 -40 9 C-38.02 9 -36.04 9 -34 9 C-34 8.34 -34 7.68 -34 7 C-33.11699219 6.90203125 -32.23398437 6.8040625 -31.32421875 6.703125 C-23.36565354 5.71151 -16.41093516 4.02613186 -9 1 C-3.35294118 -1.11764706 -3.35294118 -1.11764706 0 0 Z " fill="#4F4F4F" transform="translate(566,442)"/>
<path d="M0 0 C6.27 0 12.54 0 19 0 C19 0.66 19 1.32 19 2 C19.71542969 1.9071875 20.43085937 1.814375 21.16796875 1.71875 C25.07850104 2.10710631 26.51087084 3.81043601 29.3125 6.5 C30.19550781 7.3353125 31.07851563 8.170625 31.98828125 9.03125 C32.65214844 9.6809375 33.31601562 10.330625 34 11 C33.67 11.66 33.34 12.32 33 13 C32.45730469 12.51789063 31.91460938 12.03578125 31.35546875 11.5390625 C30.64003906 10.90742187 29.92460938 10.27578125 29.1875 9.625 C28.47980469 8.99851562 27.77210938 8.37203125 27.04296875 7.7265625 C21.19311281 2.78270719 15.51113159 2.81196901 8.1875 2.4375 C7.39923828 2.39431641 6.61097656 2.35113281 5.79882812 2.30664062 C3.86605785 2.20121679 1.93304974 2.10016906 0 2 C0 1.34 0 0.68 0 0 Z " fill="#747474" transform="translate(725,70)"/>
<path d="M0 0 C-0.639375 0.309375 -1.27875 0.61875 -1.9375 0.9375 C-3.93610821 1.8345163 -3.93610821 1.8345163 -5 3 C-6.4887186 3.08669432 -7.981445 3.10703494 -9.47265625 3.09765625 C-10.37177734 3.09443359 -11.27089844 3.09121094 -12.19726562 3.08789062 C-13.14279297 3.07951172 -14.08832031 3.07113281 -15.0625 3.0625 C-16.01189453 3.05798828 -16.96128906 3.05347656 -17.93945312 3.04882812 C-20.29303065 3.0370011 -22.64648477 3.02052025 -25 3 C-25 2.34 -25 1.68 -25 1 C-16.65080904 0.37659374 -8.37760553 -0.17740812 0 0 Z " fill="#7D7D7D" transform="translate(529,437)"/>
<path d="M0 0 C0.33 0 0.66 0 1 0 C1 2.64 1 5.28 1 8 C1.66 8 2.32 8 3 8 C3 9.32 3 10.64 3 12 C3.66 12 4.32 12 5 12 C5.33 16.62 5.66 21.24 6 26 C3.20145512 22.26860682 2.57408732 21.1150647 1.875 16.8125 C1.55705645 13.60755169 1.55705645 13.60755169 0 11 C-0.07226502 9.14712498 -0.0838122 7.29166122 -0.0625 5.4375 C-0.05347656 4.42558594 -0.04445313 3.41367187 -0.03515625 2.37109375 C-0.02355469 1.58863281 -0.01195312 0.80617188 0 0 Z " fill="#6C6C6C" transform="translate(385,359)"/>
<path d="M0 0 C2.12936806 3.19405209 2.23418211 3.49187661 1.7578125 7.01171875 C1.66113281 7.76904297 1.56445312 8.52636719 1.46484375 9.30664062 C1.35269531 10.09232422 1.24054687 10.87800781 1.125 11.6875 C1.02058594 12.48478516 0.91617188 13.28207031 0.80859375 14.10351562 C0.54948177 16.07041111 0.27610346 18.03541767 0 20 C-0.66 20 -1.32 20 -2 20 C-2.33 21.32 -2.66 22.64 -3 24 C-2.67 17.4 -2.34 10.8 -2 4 C-1.34 4 -0.68 4 0 4 C0 2.68 0 1.36 0 0 Z " fill="#C0C0C0" transform="translate(624,341)"/>
<path d="M0 0 C3.3 0.33 6.6 0.66 10 1 C10 1.66 10 2.32 10 3 C14.29 3.33 18.58 3.66 23 4 C23 4.66 23 5.32 23 6 C24.65 6 26.3 6 28 6 C28 6.33 28 6.66 28 7 C25.36 7 22.72 7 20 7 C20 6.34 20 5.68 20 5 C16.04 4.67 12.08 4.34 8 4 C8 3.34 8 2.68 8 2 C5.36 1.67 2.72 1.34 0 1 C0 0.67 0 0.34 0 0 Z " fill="#545454" transform="translate(449,447)"/>
<path d="M0 0 C0 3.49889647 -0.54120332 4.0553603 -2.75 6.625 C-3.26046875 7.23601562 -3.7709375 7.84703125 -4.296875 8.4765625 C-6.22147352 10.19810705 -7.50864333 10.49465382 -10 11 C-10.680625 11.53625 -11.36125 12.0725 -12.0625 12.625 C-12.701875 13.07875 -13.34125 13.5325 -14 14 C-14.99 13.67 -15.98 13.34 -17 13 C-15.71283353 11.99421411 -14.42011342 10.99553202 -13.125 10 C-12.40570312 9.443125 -11.68640625 8.88625 -10.9453125 8.3125 C-9 7 -9 7 -7 7 C-6.67 6.34 -6.34 5.68 -6 5 C-4.07286182 3.23835014 -2.03176334 1.64270227 0 0 Z " fill="#7E7E7E" transform="translate(580,410)"/>
<path d="M0 0 C1.33332095 2.6666419 0.67102033 4.16680303 0 7 C-0.66 7 -1.32 7 -2 7 C-2.33 13.93 -2.66 20.86 -3 28 C-3.33 28 -3.66 28 -4 28 C-4.08797281 24.81267746 -4.14071341 21.62567212 -4.1875 18.4375 C-4.21263672 17.54224609 -4.23777344 16.64699219 -4.26367188 15.72460938 C-4.32654654 10.00301457 -3.70102263 6.06866966 -1 1 C-0.67 0.67 -0.34 0.34 0 0 Z " fill="#656565" transform="translate(156,177)"/>
<path d="M0 0 C0.66 0.33 1.32 0.66 2 1 C0.5484451 2.67257355 -0.91144409 4.33791758 -2.375 6 C-3.18710937 6.928125 -3.99921875 7.85625 -4.8359375 8.8125 C-5.55007812 9.534375 -6.26421875 10.25625 -7 11 C-7.66 11 -8.32 11 -9 11 C-9.33 11.66 -9.66 12.32 -10 13 C-9.67 11.35 -9.34 9.7 -9 8 C-8.34 8 -7.68 8 -7 8 C-6.773125 7.4225 -6.54625 6.845 -6.3125 6.25 C-4.66961977 3.4336339 -2.60466773 1.91922886 0 0 Z " fill="#989898" transform="translate(43,75)"/>
<path d="M0 0 C0.33 0.66 0.66 1.32 1 2 C1.71542969 1.9071875 2.43085937 1.814375 3.16796875 1.71875 C7.07850104 2.10710631 8.51087084 3.81043601 11.3125 6.5 C12.19550781 7.3353125 13.07851563 8.170625 13.98828125 9.03125 C14.65214844 9.6809375 15.31601562 10.330625 16 11 C15.67 11.66 15.34 12.32 15 13 C14.45730469 12.51789063 13.91460938 12.03578125 13.35546875 11.5390625 C12.64003906 10.90742187 11.92460938 10.27578125 11.1875 9.625 C10.47980469 8.99851562 9.77210938 8.37203125 9.04296875 7.7265625 C5.72607533 4.92337532 3.24739492 3.68876674 -1 3 C-0.67 2.01 -0.34 1.02 0 0 Z " fill="#626262" transform="translate(743,70)"/>
<path d="M0 0 C0.33 0.99 0.66 1.98 1 3 C0.34 3 -0.32 3 -1 3 C-1.33 4.65 -1.66 6.3 -2 8 C-2.66 8 -3.32 8 -4 8 C-4.66 9.65 -5.32 11.3 -6 13 C-7 10 -7 10 -6.25 7.375 C-5 5 -5 5 -2 4 C-0.79117904 1.99983534 -0.79117904 1.99983534 0 0 Z " fill="#848484" transform="translate(611,393)"/>
<path d="M0 0 C4.29 0.66 8.58 1.32 13 2 C12.01 2.495 12.01 2.495 11 3 C11 3.66 11 4.32 11 5 C8.03 4.67 5.06 4.34 2 4 C2 3.34 2 2.68 2 2 C1.34 2 0.68 2 0 2 C0 1.34 0 0.68 0 0 Z " fill="#7A7A7A" transform="translate(356,67)"/>
<path d="M0 0 C0.66 0 1.32 0 2 0 C2.33 1.98 2.66 3.96 3 6 C3.66 6 4.32 6 5 6 C5.33 7.98 5.66 9.96 6 12 C5.01 12 4.02 12 3 12 C2.49166409 10.75336669 1.99368855 9.50250613 1.5 8.25 C1.2215625 7.55390625 0.943125 6.8578125 0.65625 6.140625 C0 4 0 4 0 0 Z " fill="#7B7B7B" transform="translate(595,210)"/>
<path d="M0 0 C0.68707555 2.49064888 1 4.37886292 1 7 C-1.31 8.32 -3.62 9.64 -6 11 C-4.66666667 8.33333333 -3.33333333 5.66666667 -2 3 C-1.34 3 -0.68 3 0 3 C0 2.01 0 1.02 0 0 Z " fill="#A3A3A3" transform="translate(592,394)"/>
<path d="M0 0 C4.62 0 9.24 0 14 0 C14 0.66 14 1.32 14 2 C14.99 2.33 15.98 2.66 17 3 C14.66705225 3.04241723 12.33297433 3.04092937 10 3 C9.67 2.67 9.34 2.34 9 2 C7.48530552 1.76807135 5.96245438 1.58784762 4.4375 1.4375 C3.61121094 1.35371094 2.78492188 1.26992188 1.93359375 1.18359375 C1.29550781 1.12300781 0.65742187 1.06242187 0 1 C0 0.67 0 0.34 0 0 Z " fill="#4D4D4D" transform="translate(554,261)"/>
<path d="M0 0 C2.97 0 5.94 0 9 0 C7.02 0.99 7.02 0.99 5 2 C4.67 2.33 4.34 2.66 4 3 C2.31391034 3.07205511 0.62499341 3.08386068 -1.0625 3.0625 C-1.98160156 3.05347656 -2.90070312 3.04445313 -3.84765625 3.03515625 C-4.55792969 3.02355469 -5.26820313 3.01195312 -6 3 C-6 2.67 -6 2.34 -6 2 C-4.02 2 -2.04 2 0 2 C0 1.34 0 0.68 0 0 Z " fill="#989898" transform="translate(532,449)"/>
<path d="M0 0 C-0.99 0.33 -1.98 0.66 -3 1 C-3 1.66 -3 2.32 -3 3 C-5.97 3 -8.94 3 -12 3 C-12 2.34 -12 1.68 -12 1 C-7.93631321 0.22596442 -4.13574827 -0.0984702 0 0 Z " fill="#818181" transform="translate(542,434)"/>
<path d="M0 0 C0 0.66 0 1.32 0 2 C-2.99480917 2.8723412 -5.63575911 3.10829766 -8.75 3.0625 C-9.54921875 3.05347656 -10.3484375 3.04445313 -11.171875 3.03515625 C-11.77515625 3.02355469 -12.3784375 3.01195313 -13 3 C-13 2.67 -13 2.34 -13 2 C-8.49646738 0.24252386 -4.82360189 -0.19294408 0 0 Z " fill="#585858" transform="translate(206,86)"/>
<path d="M0 0 C0.33 0 0.66 0 1 0 C1 3.3 1 6.6 1 10 C0.34 10 -0.32 10 -1 10 C-1.33 11.32 -1.66 12.64 -2 14 C-2.21192221 8.80790596 -1.5912689 4.873261 0 0 Z " fill="#4D4D4D" transform="translate(623,351)"/>
<path d="M0 0 C1.39195915 4.17587745 -0.17676781 6.13474776 -2 10 C-2.66 10 -3.32 10 -4 10 C-4.33 10.99 -4.66 11.98 -5 13 C-5 11.68 -5 10.36 -5 9 C-4.34 9 -3.68 9 -3 9 C-2.87625 7.88625 -2.7525 6.7725 -2.625 5.625 C-2 2 -2 2 0 0 Z " fill="#626262" transform="translate(617,380)"/>
<path d="M0 0 C3.3 0.33 6.6 0.66 10 1 C10 1.66 10 2.32 10 3 C7.69 3 5.38 3 3 3 C3 2.34 3 1.68 3 1 C2.01 0.67 1.02 0.34 0 0 Z " fill="#7D7D7D" transform="translate(459,434)"/>
<path d="M0 0 C0.33 0 0.66 0 1 0 C0.67 3.63 0.34 7.26 0 11 C-0.66 11 -1.32 11 -2 11 C-2.19622241 6.78121808 -1.80230168 3.82989106 0 0 Z " fill="#565656" transform="translate(404,312)"/>
<path d="M0 0 C0.66 0 1.32 0 2 0 C2 0.66 2 1.32 2 2 C1.34 2 0.68 2 0 2 C0 1.34 0 0.68 0 0 Z " fill="#000000" transform="translate(571,442)"/>
<path d="M0 0 C0.66 0 1.32 0 2 0 C2 0.66 2 1.32 2 2 C1.34 2 0.68 2 0 2 C0 1.34 0 0.68 0 0 Z " fill="#000000" transform="translate(94,176)"/>
<path d="M0 0 C0.33 0.66 0.66 1.32 1 2 C0.34 1.67 -0.32 1.34 -1 1 C-0.67 0.67 -0.34 0.34 0 0 Z " fill="#000000" transform="translate(572,536)"/>
<path d="M0 0 C0.99 0.495 0.99 0.495 2 1 C1.01 1.495 1.01 1.495 0 2 C0 1.34 0 0.68 0 0 Z " fill="#000000" transform="translate(664,512)"/>
<path d="M0 0 C0.99 0.495 0.99 0.495 2 1 C1.01 1.495 1.01 1.495 0 2 C0 1.34 0 0.68 0 0 Z " fill="#000000" transform="translate(79,366)"/>
<path d="M0 0 C0.33 0.66 0.66 1.32 1 2 C0.34 1.67 -0.32 1.34 -1 1 C-0.67 0.67 -0.34 0.34 0 0 Z " fill="#000000" transform="translate(692,299)"/>
<path d="M0 0 C0.33 0.66 0.66 1.32 1 2 C0.34 1.67 -0.32 1.34 -1 1 C-0.67 0.67 -0.34 0.34 0 0 Z " fill="#000000" transform="translate(221,299)"/>
<path d="M0 0 C0.66 0.66 1.32 1.32 2 2 C1.34 2 0.68 2 0 2 C0 1.34 0 0.68 0 0 Z " fill="#000000" transform="translate(477,296)"/>
<path d="M0 0 C0.33 0.66 0.66 1.32 1 2 C0.34 1.67 -0.32 1.34 -1 1 C-0.67 0.67 -0.34 0.34 0 0 Z " fill="#000000" transform="translate(332,220)"/>
<path d="M0 0 C0.33 0.66 0.66 1.32 1 2 C0.34 1.67 -0.32 1.34 -1 1 C-0.67 0.67 -0.34 0.34 0 0 Z " fill="#000000" transform="translate(771,188)"/>
<path d="M0 0 C0.99 0.495 0.99 0.495 2 1 C1.01 1.495 1.01 1.495 0 2 C0 1.34 0 0.68 0 0 Z " fill="#000000" transform="translate(328,129)"/>
<path d="M0 0 C2 1 2 1 2 1 Z " fill="#000000" transform="translate(205,567)"/>
<path d="" fill="#000000" transform="translate(0,0)"/>
<path d="" fill="#000000" transform="translate(0,0)"/>
<path d="M0 0 C2 1 2 1 2 1 Z " fill="#000000" transform="translate(111,494)"/>
<path d="M0 0 C2 1 2 1 2 1 Z " fill="#000000" transform="translate(597,491)"/>
<path d="M0 0 C2 1 2 1 2 1 Z " fill="#000000" transform="translate(594,491)"/>
<path d="M0 0 C2 1 2 1 2 1 Z " fill="#000000" transform="translate(278,421)"/>
<path d="" fill="#000000" transform="translate(0,0)"/>
<path d="" fill="#000000" transform="translate(0,0)"/>
<path d="" fill="#000000" transform="translate(0,0)"/>
<path d="" fill="#000000" transform="translate(0,0)"/>
<path d="M0 0 C2 1 2 1 2 1 Z " fill="#000000" transform="translate(50,321)"/>
<path d="M0 0 C2 1 2 1 2 1 Z " fill="#000000" transform="translate(223,319)"/>
<path d="M0 0 C2 1 2 1 2 1 Z " fill="#000000" transform="translate(416,306)"/>
<path d="M0 0 C2 1 2 1 2 1 Z " fill="#000000" transform="translate(410,243)"/>
<path d="M0 0 C2 1 2 1 2 1 Z " fill="#000000" transform="translate(679,230)"/>
<path d="M0 0 C2 1 2 1 2 1 Z " fill="#000000" transform="translate(91,169)"/>
<path d="M0 0 C2 1 2 1 2 1 Z " fill="#000000" transform="translate(653,154)"/>
<path d="M0 0 C2 1 2 1 2 1 Z " fill="#000000" transform="translate(527,119)"/>
<path d="M0 0 C2 1 2 1 2 1 Z " fill="#000000" transform="translate(600,107)"/>
<path d="M0 0 C2 1 2 1 2 1 Z " fill="#000000" transform="translate(586,90)"/>
<path d="M0 0 C2 1 2 1 2 1 Z " fill="#000000" transform="translate(193,67)"/>
<path d="M0 0 C2 1 2 1 2 1 Z " fill="#000000" transform="translate(723,44)"/>
<path d="M0 0 C2 1 2 1 2 1 Z " fill="#000000" transform="translate(9,29)"/>
<path d="M0 0 C2 1 2 1 2 1 Z " fill="#000000" transform="translate(688,17)"/>
<path d="M0 0 C2 1 2 1 2 1 Z " fill="#000000" transform="translate(393,14)"/>
<path d="" fill="#000000" transform="translate(0,0)"/>
<path d="" fill="#000000" transform="translate(0,0)"/>
<path d="" fill="#000000" transform="translate(0,0)"/>
<path d="" fill="#000000" transform="translate(0,0)"/>
<path d="" fill="#000000" transform="translate(0,0)"/>
<path d="" fill="#000000" transform="translate(0,0)"/>
<path d="" fill="#000000" transform="translate(0,0)"/>
<path d="" fill="#000000" transform="translate(0,0)"/>
<path d="" fill="#000000" transform="translate(0,0)"/>
<path d="" fill="#000000" transform="translate(0,0)"/>
<path d="" fill="#000000" transform="translate(0,0)"/>
<path d="" fill="#000000" transform="translate(0,0)"/>
<path d="" fill="#000000" transform="translate(0,0)"/>
<path d="" fill="#000000" transform="translate(0,0)"/>
<path d="" fill="#000000" transform="translate(0,0)"/>
<path d="" fill="#000000" transform="translate(0,0)"/>
<path d="" fill="#000000" transform="translate(0,0)"/>
<path d="" fill="#000000" transform="translate(0,0)"/>
<path d="" fill="#000000" transform="translate(0,0)"/>
<path d="" fill="#000000" transform="translate(0,0)"/>
<path d="" fill="#000000" transform="translate(0,0)"/>
<path d="" fill="#000000" transform="translate(0,0)"/>
<path d="" fill="#000000" transform="translate(0,0)"/>
<path d="" fill="#000000" transform="translate(0,0)"/>
<path d="" fill="#000000" transform="translate(0,0)"/>
<path d="" fill="#000000" transform="translate(0,0)"/>
<path d="" fill="#000000" transform="translate(0,0)"/>
<path d="" fill="#000000" transform="translate(0,0)"/>
<path d="" fill="#000000" transform="translate(0,0)"/>
<path d="" fill="#000000" transform="translate(0,0)"/>
<path d="" fill="#000000" transform="translate(0,0)"/>
<path d="" fill="#000000" transform="translate(0,0)"/>
<path d="" fill="#000000" transform="translate(0,0)"/>
<path d="" fill="#000000" transform="translate(0,0)"/>
<path d="" fill="#000000" transform="translate(0,0)"/>
<path d="" fill="#000000" transform="translate(0,0)"/>
<path d="" fill="#000000" transform="translate(0,0)"/>
<path d="" fill="#000000" transform="translate(0,0)"/>
<path d="" fill="#000000" transform="translate(0,0)"/>
<path d="" fill="#000000" transform="translate(0,0)"/>
<path d="" fill="#000000" transform="translate(0,0)"/>
<path d="" fill="#000000" transform="translate(0,0)"/>
<path d="" fill="#000000" transform="translate(0,0)"/>
<path d="" fill="#000000" transform="translate(0,0)"/>
<path d="" fill="#000000" transform="translate(0,0)"/>
<path d="" fill="#000000" transform="translate(0,0)"/>
<path d="" fill="#000000" transform="translate(0,0)"/>
<path d="" fill="#000000" transform="translate(0,0)"/>
<path d="" fill="#000000" transform="translate(0,0)"/>
<path d="" fill="#000000" transform="translate(0,0)"/>
<path d="" fill="#000000" transform="translate(0,0)"/>
<path d="" fill="#000000" transform="translate(0,0)"/>
<path d="" fill="#000000" transform="translate(0,0)"/>
<path d="" fill="#000000" transform="translate(0,0)"/>
<path d="" fill="#000000" transform="translate(0,0)"/>
<path d="" fill="#000000" transform="translate(0,0)"/>
<path d="" fill="#000000" transform="translate(0,0)"/>
<path d="" fill="#000000" transform="translate(0,0)"/>
<path d="" fill="#000000" transform="translate(0,0)"/>
<path d="" fill="#000000" transform="translate(0,0)"/>
<path d="" fill="#000000" transform="translate(0,0)"/>
<path d="" fill="#000000" transform="translate(0,0)"/>
<path d="" fill="#000000" transform="translate(0,0)"/>
<path d="" fill="#000000" transform="translate(0,0)"/>
<path d="" fill="#000000" transform="translate(0,0)"/>
<path d="" fill="#000000" transform="translate(0,0)"/>
<path d="" fill="#000000" transform="translate(0,0)"/>
<path d="" fill="#000000" transform="translate(0,0)"/>
<path d="" fill="#000000" transform="translate(0,0)"/>
<path d="" fill="#000000" transform="translate(0,0)"/>
<path d="" fill="#000000" transform="translate(0,0)"/>
<path d="" fill="#000000" transform="translate(0,0)"/>
<path d="" fill="#000000" transform="translate(0,0)"/>
<path d="" fill="#000000" transform="translate(0,0)"/>
<path d="" fill="#000000" transform="translate(0,0)"/>
<path d="" fill="#000000" transform="translate(0,0)"/>
<path d="" fill="#000000" transform="translate(0,0)"/>
<path d="" fill="#000000" transform="translate(0,0)"/>
<path d="" fill="#000000" transform="translate(0,0)"/>
<path d="" fill="#000000" transform="translate(0,0)"/>
<path d="" fill="#000000" transform="translate(0,0)"/>
<path d="" fill="#000000" transform="translate(0,0)"/>
<path d="" fill="#000000" transform="translate(0,0)"/>
<path d="" fill="#000000" transform="translate(0,0)"/>
<path d="" fill="#000000" transform="translate(0,0)"/>
<path d="" fill="#000000" transform="translate(0,0)"/>
<path d="" fill="#000000" transform="translate(0,0)"/>
</svg>
